<svg width="16" height="16" viewBox="0 0 16 16" fill="none" xmlns="http://www.w3.org/2000/svg">
<g clip-path="url(#clip0)">
<path d="M13.8005 5.82692C10.5873 2.61368 5.35946 2.61368 2.14622 5.82692L0 7.97287L2.19946 10.1723C3.80595 11.7788 5.91622 12.5823 8.02676 12.5823C10.1373 12.5823 12.2473 11.7791 13.8541 10.1723L16.0003 8.02611L13.8005 5.82692ZM13.4716 9.79017C10.4692 12.7923 5.58405 12.7923 2.58162 9.79017L0.764324 7.97287L2.52838 6.20882C5.53081 3.20665 10.4159 3.20665 13.4184 6.20882L15.2357 8.02611L13.4716 9.79017Z" fill="#90A9ED"/>
<path d="M7.72216 5.8291C6.67892 5.8291 5.83027 6.67775 5.83027 7.72099C5.83027 7.87018 5.95135 7.99126 6.10054 7.99126C6.24973 7.99126 6.37081 7.87018 6.37081 7.72099C6.37081 6.97586 6.97703 6.36964 7.72216 6.36964C7.87135 6.36964 7.99243 6.24856 7.99243 6.09937C7.99243 5.95018 7.87162 5.8291 7.72216 5.8291Z" fill="#90A9ED"/>
<path d="M7.99243 4.47852C6.05514 4.47852 4.47892 6.05473 4.47892 7.99203C4.47892 9.92933 6.05514 11.5055 7.99243 11.5055C9.92973 11.5055 11.5059 9.92933 11.5059 7.99203C11.5059 6.05473 9.93 4.47852 7.99243 4.47852ZM7.99243 10.965C6.35324 10.965 5.01946 9.63122 5.01946 7.99203C5.01946 6.35284 6.35324 5.01906 7.99243 5.01906C9.63162 5.01906 10.9654 6.35284 10.9654 7.99203C10.9654 9.63122 9.63189 10.965 7.99243 10.965Z" fill="#90A9ED"/>
</g>
<defs>
<clipPath id="clip0">
<rect width="16" height="16" fill="white"/>
</clipPath>
</defs>
</svg>
