<svg width="11" height="11" viewBox="0 0 11 11" fill="none" xmlns="http://www.w3.org/2000/svg">
<path d="M9.24471 3.00107C9.2049 3.00107 9.16507 3.00241 9.12544 3.00508C9.01504 1.33134 7.61286 0 5.9142 0C4.42848 0 3.14843 1.01084 2.79271 2.43267C2.56187 2.34586 2.31883 2.30185 2.06741 2.30185C0.92744 2.30185 0 3.22922 0 4.36903C0 5.509 0.92744 6.43635 2.06741 6.43635H9.24471C10.1919 6.43635 10.9624 5.66573 10.9624 4.71863C10.9624 3.77152 10.1919 3.00107 9.24471 3.00107ZM9.24471 6.09378H2.06741C1.1163 6.09378 0.342576 5.32014 0.342576 4.36903C0.342576 3.41807 1.1163 2.64443 2.06741 2.64443C2.33882 2.64443 2.59842 2.70565 2.83913 2.8266C2.88739 2.85102 2.94427 2.85102 2.99252 2.82677C3.04086 2.80268 3.07491 2.75717 3.08452 2.70399C3.332 1.33569 4.52207 0.342576 5.9142 0.342576C7.48967 0.342576 8.77968 1.62407 8.7898 3.19946C8.79014 3.25014 8.81289 3.29798 8.85203 3.33042C8.89117 3.36254 8.94278 3.37576 8.99236 3.36672C9.07467 3.35134 9.15956 3.34365 9.24471 3.34365C10.0029 3.34365 10.6199 3.96037 10.6199 4.71863C10.6199 5.47688 10.0029 6.09378 9.24471 6.09378Z" fill="#48484C"/>
<path d="M7.21887 8.51009H6.66164L7.02073 8.13506C7.08613 8.06681 7.0838 7.95842 7.01547 7.89285C6.94747 7.82761 6.83882 7.82979 6.77334 7.8982L6.18738 8.51009H5.67728V7.97739L6.28666 7.41628C6.35623 7.35222 6.36076 7.24383 6.29669 7.17423C6.23262 7.10466 6.12422 7.1003 6.05465 7.16437L5.67728 7.51179V6.9685C5.67728 6.87381 5.60058 6.79721 5.50599 6.79721C5.41139 6.79721 5.33471 6.87381 5.33471 6.9685V7.5257L4.95984 7.16671C4.8915 7.10114 4.78311 7.10349 4.71762 7.1719C4.65223 7.24014 4.65456 7.34854 4.72281 7.41395L5.33471 8.00006V8.51009H4.7321L4.14614 7.8982C4.08074 7.82979 3.97225 7.82761 3.90401 7.89285C3.83568 7.95842 3.83333 8.06681 3.89875 8.13506L4.25784 8.51009H3.79311C3.69851 8.51009 3.62183 8.58669 3.62183 8.68138C3.62183 8.77605 3.69851 8.85267 3.79311 8.85267H4.2437L3.8964 9.22986C3.83234 9.29961 3.83684 9.40785 3.90644 9.47191C3.93939 9.50235 3.98095 9.51723 4.02235 9.51723C4.0686 9.51723 4.11469 9.49868 4.14849 9.46204L4.70944 8.85267H5.33471V9.45517L4.72281 10.0415C4.65449 10.1069 4.65223 10.2153 4.71762 10.2835C4.78311 10.3519 4.8915 10.3544 4.95984 10.2887L5.33471 9.92961V10.3943C5.33471 10.4889 5.41139 10.5655 5.50599 10.5655C5.60058 10.5655 5.67728 10.4889 5.67728 10.3943V9.94353L6.05465 10.291C6.08752 10.3213 6.12907 10.3364 6.17056 10.3364C6.21682 10.3364 6.2629 10.3178 6.29661 10.2812C6.36076 10.2116 6.35623 10.1032 6.28666 10.0391L5.67728 9.47789V8.85267H6.21004L6.77099 9.46204C6.80479 9.49868 6.85086 9.51723 6.89711 9.51723C6.93851 9.51723 6.98017 9.50235 7.01304 9.47191C7.08261 9.40785 7.08714 9.29961 7.02308 9.22986L6.67577 8.85267H7.21887C7.31346 8.85267 7.39016 8.77605 7.39016 8.68138C7.39016 8.58669 7.31346 8.51009 7.21887 8.51009Z" fill="#48484C"/>
</svg>
