<svg width="12" height="13" viewBox="0 0 12 13" fill="none" xmlns="http://www.w3.org/2000/svg">
<path d="M11.9835 5.06551C11.9441 4.94483 11.8407 4.85862 11.7151 4.83892L7.97141 4.30692L6.28676 0.920377C6.23011 0.807082 6.11435 0.735657 5.98874 0.735657C5.86313 0.735657 5.74738 0.807082 5.69073 0.92284L4.02824 4.31924L0.284567 4.87586C0.158957 4.89557 0.0555131 4.98177 0.0161061 5.10246C-0.023301 5.22314 0.0111802 5.35614 0.102309 5.44234L2.81894 8.07523L2.19088 11.8041C2.16872 11.9297 2.22044 12.0553 2.32388 12.1292C2.38053 12.1711 2.44949 12.1933 2.51846 12.1933C2.57264 12.1933 2.62436 12.181 2.67362 12.1539L6.01584 10.383L9.3679 12.1342C9.41716 12.1588 9.46888 12.1711 9.5206 12.1711C9.70286 12.1711 9.8531 12.0209 9.8531 11.8386C9.8531 11.8115 9.85064 11.7869 9.84325 11.7623L9.19549 8.05552L11.8949 5.40786C11.9909 5.31919 12.023 5.1862 11.9835 5.06551Z" fill="#FE4349"/>
</svg>
