<svg width="8" height="6" viewBox="0 0 8 6" fill="#2C3D52" xmlns="http://www.w3.org/2000/svg">
<path d="M4.31216 5.22222L7.8722 1.66212C7.9546 1.57978 8 1.46986 8 1.35266C8 1.23546 7.9546 1.12554 7.8722 1.0432L7.61008 0.781023C7.43929 0.610423 7.1617 0.610423 6.99116 0.781023L4.00166 3.77053L1.00884 0.777706C0.926433 0.695365 0.81658 0.649902 0.699442 0.649902C0.582175 0.649902 0.472322 0.695365 0.389852 0.777706L0.127805 1.03988C0.0453992 1.12229 1.40506e-06 1.23214 1.39994e-06 1.34934C1.39481e-06 1.46655 0.0453991 1.57646 0.127805 1.6588L3.69109 5.22222C3.77376 5.30476 3.88413 5.35009 4.00146 5.34983C4.11925 5.35009 4.22956 5.30476 4.31216 5.22222Z" fill="#2C3D52"/>
</svg>
