<svg width="18" height="18" viewBox="0 0 18 18" fill="none" xmlns="http://www.w3.org/2000/svg">
<path d="M17.8237 15.2243L14.2412 11.6421L16.797 10.166C16.9967 10.0506 17.1129 9.83142 17.0963 9.60142C17.0797 9.37136 16.9332 9.17106 16.719 9.08566L5.32212 4.53984C5.0987 4.45063 4.84359 4.50318 4.67345 4.67324C4.50332 4.84342 4.45077 5.09845 4.53993 5.32184L9.08542 16.719C9.17089 16.9332 9.37121 17.0798 9.60129 17.0964C9.83137 17.1131 10.0507 16.9969 10.1659 16.7971L11.6421 14.2415L15.2243 17.8238C15.3371 17.9367 15.4904 18.0001 15.65 18.0001C15.8097 18.0001 15.9628 17.9367 16.0756 17.8238L17.8237 16.0756C18.0588 15.8405 18.0588 15.4594 17.8237 15.2243Z" fill="#2C3D52"/>
<path d="M2.64244 1.79107C2.40733 1.55616 2.02627 1.5561 1.79103 1.79107C1.55598 2.02616 1.55598 2.40732 1.79103 2.64241L3.12867 3.97992C3.2462 4.09744 3.40021 4.15622 3.55434 4.15622C3.70836 4.15622 3.86243 4.09744 3.97996 3.97992C4.21507 3.74483 4.21507 3.36374 3.97996 3.12865L2.64244 1.79107Z" fill="#2C3D52"/>
<path d="M3.09579 5.9524C3.09579 5.62004 2.82625 5.35046 2.49374 5.35046H0.602054C0.2696 5.35046 0 5.61998 0 5.9524C0 6.28483 0.269539 6.5544 0.602054 6.5544H2.49374C2.82625 6.55434 3.09579 6.28483 3.09579 5.9524Z" fill="#2C3D52"/>
<path d="M2.85151 7.81024L1.51369 9.14787C1.27864 9.38296 1.27864 9.76412 1.51369 9.99915C1.63128 10.1167 1.78535 10.1754 1.93937 10.1754C2.09338 10.1754 2.24751 10.1167 2.36504 9.99915L3.7028 8.66157C3.93791 8.42648 3.93791 8.04533 3.7028 7.81024C3.46774 7.57533 3.08674 7.57527 2.85151 7.81024Z" fill="#2C3D52"/>
<path d="M5.95258 3.09564C6.28503 3.09564 6.55463 2.82612 6.55463 2.49364V0.601939C6.55463 0.269515 6.28509 0 5.95258 0C5.62019 0 5.35059 0.269455 5.35059 0.601939V2.4937C5.35059 2.82612 5.62013 3.09564 5.95258 3.09564Z" fill="#2C3D52"/>
<path d="M8.2358 3.87903C8.38993 3.87903 8.54395 3.82024 8.66147 3.70272L9.99905 2.36521C10.2342 2.13012 10.2342 1.74896 9.99905 1.51387C9.76393 1.2789 9.38275 1.2789 9.1477 1.51387L7.81012 2.85145C7.57501 3.08654 7.57501 3.46769 7.81012 3.70272C7.92771 3.82024 8.08172 3.87903 8.2358 3.87903Z" fill="#2C3D52"/>
</svg>
