<svg width="12" height="13" viewBox="0 0 12 13" fill="none" xmlns="http://www.w3.org/2000/svg">
<g clip-path="url(#clip0)">
<path d="M11.9835 5.06553C11.9441 4.94484 11.8407 4.85864 11.7151 4.83894L7.97141 4.30694L6.28676 0.920393C6.23011 0.807097 6.11435 0.735672 5.98874 0.735672C5.86313 0.735672 5.74737 0.807097 5.69073 0.922856L4.02824 4.31925L0.284567 4.87588C0.158957 4.89558 0.0555131 4.98179 0.0161061 5.10247C-0.023301 5.22315 0.0111802 5.35615 0.102309 5.44236L2.81894 8.07524L2.19088 11.8041C2.16872 11.9297 2.22044 12.0554 2.32388 12.1292C2.38053 12.1711 2.44949 12.1933 2.51846 12.1933C2.57264 12.1933 2.62436 12.181 2.67362 12.1539L6.01584 10.383L9.3679 12.1342C9.41716 12.1588 9.46888 12.1711 9.5206 12.1711C9.70286 12.1711 9.8531 12.0209 9.8531 11.8386C9.8531 11.8115 9.85064 11.7869 9.84325 11.7623L9.19549 8.05554L11.8949 5.40788C11.9909 5.31921 12.023 5.18621 11.9835 5.06553ZM8.60931 7.70334C8.5305 7.77969 8.49602 7.89052 8.51572 7.99889L9.07974 11.2327L6.16854 9.7131C6.07248 9.66138 5.95673 9.66384 5.85821 9.7131L2.95686 11.25L3.50117 8.01121C3.51841 7.90284 3.48393 7.79447 3.40512 7.71812L1.05054 5.4325L4.29916 4.94977C4.40753 4.93253 4.50113 4.86603 4.54792 4.76751L5.99121 1.81937L7.45419 4.76012C7.50345 4.85864 7.59704 4.92514 7.70541 4.94238L10.9565 5.40541L8.60931 7.70334Z" fill="#2C3D52"/>
</g>
<defs>
<clipPath id="clip0">
<rect width="12" height="12" fill="white" transform="translate(0 0.464355)"/>
</clipPath>
</defs>
</svg>
