<svg width="17" height="17" viewBox="0 0 17 17" fill="none" xmlns="http://www.w3.org/2000/svg">
<path d="M12.9246 11.2459C12.3692 10.6976 11.6758 10.6976 11.124 11.2459C10.703 11.6633 10.282 12.0807 9.86812 12.5052C9.75492 12.622 9.6594 12.6467 9.52143 12.5689C9.24904 12.4203 8.95895 12.3001 8.69717 12.1373C7.47669 11.3697 6.45432 10.3827 5.54869 9.27194C5.09941 8.72009 4.69966 8.12933 4.42019 7.46428C4.36359 7.32985 4.3742 7.24141 4.48387 7.13175C4.90484 6.72494 5.31521 6.30751 5.72911 5.89008C6.30574 5.30993 6.30574 4.63073 5.72557 4.04704C5.39657 3.71451 5.06757 3.38906 4.73858 3.05654C4.39897 2.71693 4.06289 2.3738 3.71974 2.03773C3.16434 1.49649 2.47096 1.49649 1.9191 2.04127C1.49458 2.4587 1.08776 2.88674 0.656167 3.29709C0.256416 3.6756 0.0547716 4.13901 0.0123202 4.68025C-0.0548945 5.56109 0.1609 6.39241 0.465135 7.2025C1.08776 8.87928 2.03584 10.3686 3.18556 11.7341C4.73858 13.5806 6.59229 15.0416 8.76085 16.0958C9.73723 16.5698 10.749 16.9342 11.8492 16.9943C12.6062 17.0368 13.2642 16.8458 13.7913 16.255C14.1522 15.8517 14.559 15.4838 14.9411 15.0982C15.5071 14.5251 15.5106 13.8318 14.9481 13.2658C14.276 12.5901 13.6003 11.918 12.9246 11.2459Z" fill="#2C3D52"/>
<path d="M12.2488 8.42649L13.5542 8.20362C13.349 7.00441 12.783 5.91839 11.9234 5.05524C11.0142 4.1461 9.86448 3.57302 8.59801 3.39615L8.41406 4.70856C9.39398 4.84653 10.2855 5.28872 10.9894 5.99268C11.6545 6.65773 12.0896 7.49966 12.2488 8.42649Z" fill="#2C3D52"/>
<path d="M14.2902 2.75218C12.7832 1.2452 10.8764 0.293613 8.7715 0L8.58755 1.31242C10.4059 1.56712 12.0544 2.39136 13.3563 3.68962C14.5909 4.92422 15.401 6.48426 15.6946 8.19995L17 7.97709C16.6569 5.98901 15.7194 4.18488 14.2902 2.75218Z" fill="#2C3D52"/>
</svg>
