<svg width="11" height="12" viewBox="0 0 11 12" fill="none" xmlns="http://www.w3.org/2000/svg">
<path d="M9.03964 2.92785C9.00712 2.92785 8.97463 2.92877 8.94214 2.93059C8.82375 1.29638 7.45147 0 5.79034 0C4.33896 0 3.08753 0.982163 2.73064 2.36681C2.50963 2.28643 2.27737 2.24578 2.03723 2.24578C0.913875 2.24578 0 3.15966 0 4.28301C0 5.40636 0.913875 6.32025 2.03723 6.32025H9.03964C9.97494 6.32025 10.7358 5.55926 10.7358 4.62396C10.7358 3.68865 9.97494 2.92785 9.03964 2.92785ZM9.03964 5.94525H2.03723C1.12069 5.94525 0.375 5.19964 0.375 4.28301C0.375 3.36639 1.12069 2.62078 2.03723 2.62078C2.29897 2.62078 2.54919 2.67973 2.781 2.79619C2.83391 2.82311 2.89616 2.82293 2.94891 2.79637C3.00182 2.77001 3.03909 2.72021 3.04961 2.66197C3.2892 1.33684 4.44186 0.375 5.79034 0.375C7.31616 0.375 8.56558 1.61627 8.57537 3.14209C8.57574 3.19757 8.60064 3.24994 8.64349 3.28526C8.68624 3.32061 8.74209 3.33508 8.79711 3.32518C8.87685 3.31035 8.95843 3.30285 9.03964 3.30285C9.76811 3.30285 10.3608 3.89556 10.3608 4.62396C10.3608 5.35253 9.76811 5.94525 9.03964 5.94525Z" fill="#48484C"/>
<path d="M6.11487 8.61728C6.08155 8.55833 6.01911 8.5219 5.95153 8.5219C5.9509 8.5219 5.95026 8.5219 5.94972 8.5219L5.33713 8.52794L5.57031 6.83202C5.58222 6.74577 5.53287 6.66246 5.4514 6.63132C5.37019 6.60057 5.27781 6.62969 5.229 6.70182L3.44895 9.34532C3.40995 9.40336 3.40637 9.47808 3.43971 9.53959C3.47312 9.60093 3.5329 9.63865 3.60771 9.63754L4.25618 9.62658L3.92072 11.6686C3.90625 11.757 3.95616 11.8432 4.04001 11.8746C4.06163 11.8826 4.08377 11.8865 4.10565 11.8865C4.1692 11.8865 4.23036 11.854 4.26533 11.7975L6.11112 8.80789C6.147 8.74986 6.14837 8.67679 6.11487 8.61728ZM4.44448 10.7933L4.66266 9.46562C4.67164 9.41069 4.65589 9.35466 4.61953 9.31272C4.58384 9.27134 4.5321 9.24771 4.47763 9.24771C4.47662 9.24771 4.47553 9.24771 4.47443 9.24771L3.9609 9.25651L5.08875 7.58164L4.93603 8.69219C4.92863 8.74602 4.94511 8.80058 4.98109 8.84159C5.01715 8.88243 5.07328 8.90989 5.12363 8.90513L5.61334 8.90018L4.44448 10.7933Z" fill="#48484C"/>
<path d="M2.34909 8.92949L2.72966 7.87351C2.76474 7.7761 2.71419 7.66862 2.61679 7.63364C2.51964 7.59794 2.41198 7.64884 2.37683 7.74644L1.99624 8.8024C1.96118 8.89982 2.01171 9.0073 2.10913 9.04227C2.13009 9.04997 2.15153 9.05344 2.17266 9.05344C2.24948 9.05344 2.32153 9.00602 2.34909 8.92949Z" fill="#48484C"/>
<path d="M7.76267 7.63364C7.66555 7.59794 7.55788 7.64884 7.52273 7.74644L7.14223 8.8024C7.10717 8.89982 7.1577 9.0073 7.25511 9.04227C7.27607 9.04997 7.2975 9.05344 7.31865 9.05344C7.39545 9.05344 7.46751 9.00602 7.49507 8.92949L7.87556 7.87351C7.91063 7.7761 7.8601 7.66862 7.76267 7.63364Z" fill="#48484C"/>
<path d="M2.76971 10.4322C2.67249 10.3963 2.56492 10.4474 2.52976 10.545L2.14908 11.6012C2.11402 11.6986 2.16446 11.8061 2.26196 11.8411C2.28292 11.8487 2.30435 11.8522 2.3255 11.8522C2.40232 11.8522 2.47436 11.8048 2.50192 11.7283L2.8826 10.6721C2.91766 10.5747 2.86722 10.4672 2.76971 10.4322Z" fill="#48484C"/>
<path d="M6.63533 10.5802C6.53821 10.5445 6.43052 10.5954 6.39537 10.693L6.0148 11.749C5.97972 11.8464 6.03027 11.9539 6.12767 11.9888C6.14864 11.9965 6.17007 12 6.19122 12C6.26802 12 6.34007 11.9526 6.36764 11.876L6.74822 10.8201C6.78329 10.7227 6.73276 10.6152 6.63533 10.5802Z" fill="#48484C"/>
</svg>
