<svg width="23" height="21" viewBox="0 0 23 21" fill="none" xmlns="http://www.w3.org/2000/svg">
<path d="M21.1427 2.26684C19.9383 1.06247 18.3439 0.404215 16.6422 0.404215C14.9405 0.404215 13.3411 1.06735 12.1368 2.27171L11.5078 2.90071L10.869 2.26196C9.66466 1.0576 8.06046 0.389587 6.35875 0.389587C4.66191 0.389587 3.06259 1.05272 1.8631 2.25221C0.65874 3.45657 -0.00439151 5.05589 0.000484463 6.7576C0.000484463 8.45932 0.668492 10.0538 1.87286 11.2581L11.0299 20.4152C11.1567 20.542 11.3274 20.6102 11.4931 20.6102C11.6589 20.6102 11.8296 20.5468 11.9564 20.4201L21.1329 11.2776C22.3373 10.0733 23.0004 8.47395 23.0004 6.77223C23.0053 5.07052 22.3471 3.4712 21.1427 2.26684ZM20.2065 10.3463L11.4931 19.0255L2.79929 10.3317C1.8436 9.376 1.317 8.10825 1.317 6.7576C1.317 5.40696 1.83872 4.13921 2.79441 3.18839C3.74523 2.23758 5.01298 1.71098 6.35875 1.71098C7.70939 1.71098 8.98202 2.23758 9.93771 3.19327L11.0397 4.29524C11.2981 4.55367 11.7126 4.55367 11.971 4.29524L13.0632 3.20302C14.0189 2.24733 15.2915 1.72073 16.6373 1.72073C17.9831 1.72073 19.2508 2.24733 20.2065 3.19815C21.1622 4.15384 21.6839 5.42159 21.6839 6.77223C21.6888 8.12288 21.1622 9.39063 20.2065 10.3463Z" fill="#2C3D52" fill-opacity="0.5"/>
</svg>
