<svg width="30" height="30" viewBox="0 0 30 30" fill="none" xmlns="http://www.w3.org/2000/svg">
<path d="M19.3617 7.98145H10.4203C8.99315 7.98145 7.83203 9.14257 7.83203 10.5697V19.5111C7.83203 20.9383 8.99315 22.0997 10.4203 22.0997H19.3617C20.7889 22.0997 21.9503 20.9386 21.9503 19.5111V10.5697C21.9503 9.14257 20.7892 7.98145 19.3617 7.98145ZM14.891 19.6883C12.3285 19.6883 10.2435 17.6033 10.2435 15.0404C10.2435 12.4779 12.3285 10.3929 14.891 10.3929C17.4539 10.3929 19.5388 12.4779 19.5388 15.0404C19.5388 17.603 17.4536 19.6883 14.891 19.6883ZM19.6882 11.3538C19.0816 11.3538 18.5883 10.8605 18.5883 10.2542C18.5883 9.64793 19.0816 9.1546 19.6882 9.1546C20.2945 9.1546 20.7879 9.64793 20.7879 10.2542C20.7879 10.8605 20.2945 11.3538 19.6882 11.3538Z" fill="#6A453B"/>
<path d="M14.8909 12.3569C13.4116 12.3569 12.207 13.5608 12.207 15.0401C12.207 16.5201 13.4116 17.7244 14.8909 17.7244C16.3709 17.7244 17.5745 16.5201 17.5745 15.0401C17.5745 13.5612 16.3706 12.3569 14.8909 12.3569Z" fill="#6A453B"/>
<path d="M14.8906 0C6.60668 0 -0.109375 6.71606 -0.109375 15C-0.109375 23.2839 6.60668 30 14.8906 30C23.1746 30 29.8906 23.2839 29.8906 15C29.8906 6.71606 23.1746 0 14.8906 0ZM23.9136 19.5111C23.9136 22.0215 21.8717 24.0634 19.3613 24.0634H10.4199C7.90985 24.0634 5.8677 22.0215 5.8677 19.5111V10.5698C5.8677 8.05967 7.90985 6.01751 10.4199 6.01751H19.3613C21.8717 6.01751 23.9136 8.05967 23.9136 10.5698V19.5111Z" fill="#6A453B"/>
</svg>
