<svg width="13" height="13" viewBox="0 0 13 13" fill="none" xmlns="http://www.w3.org/2000/svg">
<path d="M5.35742 6.88086H7.64258V7.64258H5.35742V6.88086Z" fill="#C3D2E4"/>
<path d="M10.5467 7.64266H8.4043V8.02352C8.4043 8.23398 8.2339 8.40438 8.02344 8.40438H4.97656C4.7661 8.40438 4.5957 8.23398 4.5957 8.02352V7.64266H2.45327C1.96083 7.64266 1.52532 7.32875 1.36941 6.8616L0 2.75269V11.0704C0 11.7004 0.512573 12.213 1.14258 12.213H11.8574C12.4874 12.213 13 11.7004 13 11.0704V2.75298L11.6305 6.8616C11.4747 7.32875 11.0392 7.64266 10.5467 7.64266Z" fill="#C3D2E4"/>
<path d="M8.02341 0.787109H4.97654C4.34653 0.787109 3.83396 1.29968 3.83396 1.92969V2.31055H0.655273L2.09173 6.62051C2.1438 6.77632 2.2892 6.88086 2.45325 6.88086H4.59568V6.5C4.59568 6.28954 4.76607 6.11914 4.97654 6.11914H8.02341C8.23388 6.11914 8.40427 6.28954 8.40427 6.5V6.88086H10.5467C10.7107 6.88086 10.8561 6.77632 10.9082 6.62051L12.3448 2.31055H9.16599V1.92969C9.16599 1.29968 8.65342 0.787109 8.02341 0.787109ZM4.59568 2.31055V1.92969C4.59568 1.71952 4.76637 1.54883 4.97654 1.54883H8.02341C8.23358 1.54883 8.40427 1.71952 8.40427 1.92969V2.31055H4.59568Z" fill="#C3D2E4"/>
</svg>
