<svg width="13" height="14" viewBox="0 0 13 14" fill="none" xmlns="http://www.w3.org/2000/svg">
<path d="M6.52751 3.80042C4.92413 3.80042 3.61963 5.10492 3.61963 6.70829C3.61963 8.31167 4.92413 9.61619 6.52751 9.61619C8.13088 9.61619 9.43539 8.31167 9.43539 6.70829C9.43539 5.10492 8.13088 3.80042 6.52751 3.80042ZM6.52751 9.20605C5.15021 9.20605 4.02975 8.08548 4.02975 6.70829C4.02975 5.3311 5.15021 4.21056 6.52751 4.21056C7.9048 4.21056 9.02527 5.3311 9.02527 6.70829C9.02527 8.08548 7.9048 9.20605 6.52751 9.20605Z" fill="#48484C"/>
<path d="M6.4999 2.73793C6.61471 2.73793 6.70781 2.64496 6.70781 2.53003V0.207909C6.70781 0.0929978 6.61471 0 6.4999 0C6.38507 0 6.29199 0.0929978 6.29199 0.207909V2.53003C6.29199 2.64496 6.38507 2.73793 6.4999 2.73793Z" fill="#48484C"/>
<path d="M6.4999 10.5681C6.38507 10.5681 6.29199 10.661 6.29199 10.776V13.0983C6.29199 13.2132 6.38507 13.3062 6.4999 13.3062C6.61471 13.3062 6.70781 13.2132 6.70781 13.0983V10.776C6.70781 10.661 6.61471 10.5681 6.4999 10.5681Z" fill="#48484C"/>
<path d="M12.7922 6.32983H10.4699C10.3551 6.32983 10.262 6.42283 10.262 6.53774C10.262 6.65265 10.3551 6.74565 10.4699 6.74565H12.7922C12.907 6.74565 13.0001 6.65265 13.0001 6.53774C13.0001 6.42283 12.907 6.32983 12.7922 6.32983Z" fill="#48484C"/>
<path d="M2.73814 6.53774C2.73814 6.42283 2.64504 6.32983 2.53023 6.32983H0.207909C0.0930809 6.32983 0 6.42283 0 6.53774C0 6.65265 0.0930809 6.74565 0.207909 6.74565H2.53023C2.64504 6.74565 2.73814 6.65265 2.73814 6.53774Z" fill="#48484C"/>
<path d="M9.24013 4.1328C9.29333 4.1328 9.34651 4.11251 9.38714 4.07191L11.0294 2.42974C11.1106 2.34853 11.1106 2.21696 11.0294 2.13575C10.9482 2.05452 10.8166 2.05452 10.7354 2.13575L9.09313 3.7779C9.01192 3.85911 9.01192 3.99068 9.09313 4.07191C9.13374 4.11251 9.18694 4.1328 9.24013 4.1328Z" fill="#48484C"/>
<path d="M9.38714 9.39813C9.30591 9.31692 9.17434 9.31692 9.09313 9.39813C9.01192 9.47936 9.01192 9.61092 9.09313 9.69213L10.7354 11.3341C10.776 11.3747 10.8292 11.395 10.8824 11.395C10.9356 11.395 10.9888 11.3747 11.0294 11.3341C11.1106 11.2529 11.1106 11.1213 11.0294 11.0401L9.38714 9.39813Z" fill="#48484C"/>
<path d="M3.61262 4.07191C3.65325 4.11251 3.70643 4.1328 3.75963 4.1328C3.81282 4.1328 3.86602 4.11251 3.90662 4.07191C3.98784 3.99068 3.98784 3.85911 3.90662 3.7779L2.26458 2.13575C2.18335 2.05452 2.05179 2.05452 1.97057 2.13575C1.88937 2.21696 1.88937 2.34853 1.97057 2.42974L3.61262 4.07191Z" fill="#48484C"/>
<path d="M3.91604 9.41206C3.91236 9.40773 3.91093 9.40224 3.90681 9.39813C3.8256 9.31692 3.69404 9.31692 3.6128 9.39813L2.79362 10.2173L1.95488 11.0166C1.87173 11.0959 1.86855 11.2274 1.94781 11.3106C1.95182 11.3148 1.95727 11.3164 1.96153 11.3201C1.96521 11.3245 1.96664 11.33 1.97076 11.3341C2.01136 11.3747 2.06457 11.395 2.11775 11.395C2.17095 11.395 2.22414 11.3747 2.26476 11.3341L3.08395 10.5149L3.92269 9.71558C4.00584 9.63633 4.00902 9.50478 3.92976 9.42164C3.92575 9.41742 3.9203 9.41584 3.91604 9.41206Z" fill="#48484C"/>
</svg>
