<svg width="192" height="37" viewBox="0 0 192 37" fill="none" xmlns="http://www.w3.org/2000/svg">
<path d="M55.4438 0.699021H55.9998V36.3929H55.4375C55.4375 24.4943 55.4375 12.5949 55.4375 0.694824L55.4438 0.699021Z" fill="white"/>
<g clip-path="url(#clip0)">
<path fill-rule="evenodd" clip-rule="evenodd" d="M83.0062 22.2485C83.0483 21.4596 82.7734 20.6855 82.2393 20.0888C81.6921 19.5357 80.9786 19.1644 80.2006 19.028V18.9581C80.7711 18.7318 81.2546 18.3388 81.5837 17.8337C81.9251 17.3167 82.1008 16.7133 82.0885 16.0996C82.1025 15.5815 81.9759 15.0689 81.7214 14.6132C81.4669 14.171 81.0839 13.8109 80.6201 13.5777C80.1651 13.3404 79.6701 13.1834 79.1583 13.114C78.395 13.0245 77.6262 12.9863 76.8574 12.9997H72V26.3394H77.5064C78.3013 26.359 79.0952 26.2735 79.8663 26.0853C80.4869 25.92 81.0667 25.6348 81.5706 25.2468C82.0153 24.906 82.374 24.4716 82.6195 23.9763C82.8859 23.4308 83.0183 22.8329 83.0062 22.2295V22.2485ZM78.5552 16.7729C78.5502 16.5411 78.492 16.3132 78.3848 16.1059C78.2866 15.8933 78.1151 15.7203 77.8997 15.6168C77.6455 15.5094 77.3707 15.4552 77.0934 15.458C76.7853 15.458 76.3199 15.458 75.7037 15.458H75.4349V18.2657H75.8741C76.4641 18.2657 76.8771 18.2657 77.1131 18.2657C77.3701 18.2518 77.6217 18.1893 77.8538 18.0815C78.1011 17.9781 78.303 17.7937 78.4241 17.5606C78.5267 17.3105 78.5714 17.0416 78.5552 16.7729ZM79.4205 22.166C79.4407 21.8302 79.3513 21.4968 79.1649 21.2131C78.9681 20.9641 78.695 20.7818 78.3848 20.6922C78.1061 20.6011 77.8136 20.556 77.5195 20.5588H76.0511H75.3956V23.8556H75.5857C76.4838 23.8556 77.1065 23.8556 77.4474 23.8556C77.831 23.837 78.2072 23.7464 78.5552 23.5889C78.8315 23.4715 79.0613 23.2711 79.2108 23.0172C79.358 22.7565 79.4326 22.4631 79.4271 22.166H79.4205Z" fill="white"/>
<path d="M100.842 25.7044H96.4496L93.5522 20.9974H92.5886V25.7044H88.7734V13.8194H92.5886V18.5899C93.0037 18.6073 93.4171 18.529 93.7947 18.3612C94.1832 18.0616 94.4819 17.6669 94.66 17.2178L94.9878 16.5191L95.3024 15.8394C95.5916 15.1708 96.0919 14.6082 96.7315 14.2323C97.3714 13.9289 98.0777 13.7807 98.7898 13.8003H99.5961H100.14V16.9764H99.3995C99.173 16.9684 98.948 17.0142 98.7439 17.1098C98.5737 17.1981 98.4189 17.3117 98.2851 17.4465C98.1589 17.5709 98.0547 17.7147 97.977 17.8721C97.9049 18.0118 97.8393 18.1516 97.7738 18.285C97.6033 18.6661 97.4788 18.9202 97.4001 19.0981C97.2994 19.2839 97.1558 19.4448 96.9806 19.5681L100.842 25.7044ZM114.018 19.7651C114.113 21.4559 113.518 23.1152 112.359 24.3831C111.745 24.9659 111.012 25.4174 110.207 25.7085C109.402 25.9995 108.543 26.1237 107.685 26.0728C106.829 26.1228 105.971 25.9982 105.167 25.7072C104.363 25.4161 103.631 24.9651 103.018 24.3831C102.439 23.7582 101.994 23.0283 101.708 22.2356C101.422 21.443 101.302 20.6033 101.353 19.7651C101.301 18.9239 101.422 18.0812 101.708 17.2854C101.993 16.4895 102.439 15.7563 103.018 15.1279C103.633 14.5492 104.365 14.1012 105.169 13.8124C105.973 13.5237 106.83 13.4005 107.685 13.4509C108.542 13.4017 109.4 13.5259 110.205 13.8157C111.01 14.1055 111.743 14.5546 112.359 15.1343C113.518 16.4072 114.113 18.0704 114.018 19.7651ZM110.084 19.7651C110.098 19.1735 110.036 18.5826 109.901 18.0055C109.814 17.6022 109.645 17.2198 109.403 16.8812C109.213 16.6066 108.951 16.387 108.642 16.2459C108.334 16.1272 108.004 16.0689 107.672 16.0744C107.353 16.0804 107.037 16.1428 106.741 16.2586C106.436 16.3834 106.171 16.5852 105.974 16.843C105.727 17.1858 105.551 17.572 105.456 17.9801C105.312 18.5709 105.246 19.1771 105.26 19.7841C105.24 20.3774 105.297 20.9707 105.43 21.55C105.523 21.9325 105.685 22.296 105.909 22.6236C106.097 22.9015 106.363 23.1218 106.676 23.2588C106.998 23.3888 107.343 23.4536 107.692 23.4494C108.012 23.446 108.328 23.3812 108.623 23.2588C108.926 23.1408 109.19 22.9428 109.383 22.6871C109.62 22.3536 109.794 21.9813 109.894 21.5882C110.029 21.0068 110.089 20.4115 110.071 19.8159L110.084 19.7651ZM127.633 25.7044H123.785V20.6226H119.852V25.7044H116.043V13.8194H119.852V17.9356H123.785V13.8194H127.607V25.7044H127.633ZM140.625 16.4047H136.823V25.7044H133.002V16.4047H129.206V13.8194H140.625V16.4047ZM148.95 22.6045V20.1271L147.377 20.2859C146.975 20.3362 146.579 20.4278 146.197 20.5591C145.891 20.6538 145.62 20.8325 145.417 21.0736C145.22 21.3391 145.12 21.6614 145.135 21.9883C145.11 22.2022 145.14 22.4188 145.221 22.6192C145.302 22.8195 145.432 22.9977 145.601 23.1381C146.016 23.369 146.493 23.4772 146.971 23.4494C147.327 23.4445 147.677 23.3666 148 23.2207C148.355 23.0677 148.677 22.8523 148.95 22.5855V22.6045ZM148.95 24.4403L148.242 25.012C147.985 25.2104 147.706 25.3808 147.41 25.5202C147.09 25.6729 146.757 25.7962 146.414 25.8886C145.966 25.9845 145.508 26.0272 145.05 26.0157C144.549 26.03 144.051 25.9437 143.586 25.7622C143.121 25.5807 142.7 25.308 142.349 24.9612C141.994 24.6096 141.715 24.1921 141.531 23.7336C141.346 23.2751 141.259 22.7852 141.274 22.2933C141.237 21.5448 141.429 20.8024 141.825 20.1589C142.214 19.6015 142.757 19.1612 143.392 18.8885C144.176 18.5384 145.012 18.3091 145.869 18.2088C146.833 18.0817 147.836 17.9864 148.97 17.9166V17.8276C148.997 17.5558 148.941 17.2824 148.808 17.0416C148.675 16.8009 148.471 16.6036 148.223 16.4746C147.516 16.1814 146.749 16.0509 145.981 16.0935C145.444 16.1068 144.91 16.188 144.395 16.3349C143.789 16.5026 143.197 16.7149 142.625 16.9701H142.297V14.0735C142.677 13.9718 143.287 13.8448 144.132 13.6987C144.976 13.5538 145.832 13.4815 146.689 13.4827C148.8 13.4827 150.34 13.8194 151.278 14.5054C151.766 14.8672 152.155 15.3411 152.408 15.8844C152.66 16.4278 152.77 17.0235 152.726 17.618V25.7044H148.924V24.434L148.95 24.4403ZM167.705 25.7044H163.306L160.416 20.9974H159.419V25.7044H155.578V13.8194H159.393V18.5899C159.808 18.6093 160.222 18.5309 160.599 18.3612C160.989 18.0634 161.289 17.6681 161.464 17.2178C161.569 17.0082 161.681 16.7732 161.792 16.5191C161.904 16.265 162.015 16.0363 162.113 15.8394C162.398 15.1701 162.897 14.6068 163.536 14.2323C164.176 13.9289 164.882 13.7807 165.594 13.8003H166.4H166.945V16.9764H166.204C165.977 16.9699 165.753 17.0157 165.548 17.1098C165.376 17.1975 165.219 17.3111 165.083 17.4465C164.957 17.5709 164.853 17.7147 164.775 17.8721C164.703 18.0118 164.637 18.1516 164.572 18.285C164.401 18.6661 164.283 18.9202 164.204 19.0981C164.101 19.2841 163.955 19.4448 163.778 19.5681L167.705 25.7044ZM179.118 16.4047H175.316V25.7044H171.5V16.4047H167.705V13.8194H179.124V16.4047H179.118ZM186.984 26.0157C184.67 26.0157 182.9 25.4821 181.661 24.4085C180.422 23.335 179.812 21.8105 179.812 19.8286C179.77 18.9827 179.9 18.1369 180.196 17.34C180.492 16.543 180.947 15.8107 181.536 15.1851C182.171 14.5906 182.925 14.1296 183.752 13.8312C184.579 13.5327 185.46 13.4033 186.341 13.4509C188.225 13.4509 189.637 13.9401 190.576 14.9183C191.516 15.8966 191.99 17.3025 191.999 19.1362V20.4638H183.621C183.641 20.9426 183.763 21.4122 183.982 21.8422C184.171 22.1986 184.451 22.5024 184.794 22.7252C185.137 22.9563 185.525 23.1163 185.935 23.1953C186.404 23.2981 186.883 23.3471 187.364 23.3414C187.806 23.3441 188.246 23.295 188.675 23.1953C189.082 23.1136 189.477 22.9879 189.855 22.8205C190.154 22.6932 190.445 22.549 190.727 22.3885C190.989 22.2361 191.205 22.0963 191.382 21.9756H191.782V25.0692L190.93 25.3995C190.581 25.526 190.224 25.6299 189.862 25.7108C189.442 25.8201 189.015 25.9029 188.583 25.9585C188.049 26.0255 187.51 26.0552 186.971 26.0474L186.984 26.0157ZM188.249 18.2342C188.275 17.5926 188.076 16.9614 187.685 16.4428C187.483 16.2251 187.232 16.0549 186.951 15.9448C186.671 15.8348 186.368 15.7879 186.066 15.8076C185.746 15.7906 185.426 15.8383 185.125 15.9477C184.825 16.057 184.552 16.2257 184.322 16.4428C183.895 16.9352 183.663 17.559 183.667 18.2024L188.249 18.2342Z" fill="white"/>
</g>
<path d="M35.2648 26.3425C35.223 26.2597 35.184 26.191 35.1478 26.136C34.5485 25.145 33.4034 23.9285 31.7131 22.4863L31.6774 22.4532L31.6595 22.437L31.6414 22.4204H31.6233C30.8562 21.7489 30.3704 21.2973 30.1669 21.0661C29.7947 20.6257 29.7113 20.18 29.9147 19.7283C30.0585 19.3871 30.5984 18.6664 31.5332 17.5653C32.0249 16.9818 32.4143 16.5141 32.7019 16.1617C34.776 13.6295 35.6752 12.0114 35.3994 11.3067L35.2922 11.1421C35.2203 11.0429 35.0344 10.9522 34.7351 10.8695C34.435 10.787 34.0515 10.7733 33.5839 10.8284L28.4051 10.8612C28.3212 10.8339 28.2014 10.8364 28.0453 10.8695C27.8894 10.9026 27.8115 10.9192 27.8115 10.9192L27.7213 10.9606L27.6498 11.0103C27.5898 11.0431 27.5239 11.1009 27.4519 11.1835C27.3803 11.2658 27.3204 11.3624 27.2725 11.4724C26.7087 12.8045 26.0676 14.0431 25.3482 15.1879C24.9046 15.8706 24.4972 16.4622 24.1251 16.9632C23.7536 17.464 23.4419 17.8329 23.1903 18.0694C22.9384 18.3062 22.711 18.4958 22.5068 18.6391C22.3029 18.7824 22.1473 18.843 22.0395 18.8208C21.9315 18.7987 21.8298 18.7767 21.7335 18.7547C21.5658 18.6556 21.4309 18.5207 21.3292 18.3501C21.227 18.1795 21.1582 17.9647 21.1223 17.706C21.0865 17.4471 21.0653 17.2244 21.0593 17.0372C21.0537 16.8502 21.0562 16.5857 21.0684 16.2445C21.0809 15.9031 21.0865 15.672 21.0865 15.5509C21.0865 15.1325 21.0954 14.6784 21.1132 14.1885C21.1313 13.6986 21.146 13.3105 21.1583 13.0245C21.1705 12.7383 21.1762 12.4354 21.1762 12.1161C21.1762 11.7969 21.155 11.5465 21.1132 11.3648C21.0719 11.1833 21.0084 11.0071 20.9249 10.8363C20.8408 10.6657 20.7177 10.5337 20.5562 10.44C20.3944 10.3464 20.1932 10.2721 19.9538 10.2169C19.3184 10.0849 18.5092 10.0135 17.526 10.0023C15.2963 9.98037 13.8636 10.1126 13.2282 10.3988C12.9765 10.5198 12.7487 10.685 12.545 10.8941C12.3291 11.1363 12.299 11.2686 12.4549 11.2903C13.1743 11.3893 13.6835 11.626 13.9833 12.0003L14.0913 12.1986C14.1753 12.3417 14.2592 12.5951 14.3432 12.9583C14.427 13.3215 14.4811 13.7233 14.5049 14.1635C14.5647 14.9673 14.5647 15.6553 14.5049 16.2277C14.4449 16.8003 14.3882 17.2461 14.3341 17.5654C14.28 17.8846 14.1991 18.1433 14.0913 18.3414C13.9833 18.5396 13.9114 18.6607 13.8754 18.7047C13.8394 18.7486 13.8094 18.7763 13.7856 18.7872C13.6298 18.842 13.4678 18.87 13.3 18.87C13.1321 18.87 12.9284 18.7928 12.6886 18.6386C12.449 18.4844 12.2003 18.2726 11.9425 18.0028C11.6847 17.733 11.394 17.356 11.0702 16.8716C10.7466 16.3873 10.4109 15.8148 10.0632 15.1543L9.77558 14.6753C9.59576 14.3671 9.35012 13.9184 9.03841 13.3296C8.72652 12.7405 8.45084 12.1706 8.21118 11.6202C8.11539 11.389 7.97147 11.213 7.77968 11.0919L7.68968 11.0422C7.62984 10.9982 7.53379 10.9515 7.40203 10.9018C7.27008 10.8521 7.1324 10.8165 6.98842 10.7946L2.06125 10.8274C1.55776 10.8274 1.21613 10.9322 1.03625 11.1414L0.964259 11.2403C0.928296 11.2955 0.910156 11.3835 0.910156 11.5047C0.910156 11.6258 0.94612 11.7744 1.01811 11.9504C1.73739 13.5028 2.51958 15 3.3647 16.4422C4.20982 17.8843 4.94421 19.046 5.56744 19.9262C6.19079 20.8071 6.82617 21.6384 7.47358 22.4198C8.12099 23.2015 8.54953 23.7024 8.75921 23.9225C8.96913 24.143 9.13402 24.3078 9.25388 24.4179L9.70353 24.8142C9.99124 25.0784 10.4137 25.3949 10.9712 25.7637C11.5288 26.1326 12.1461 26.4958 12.8234 26.8539C13.5009 27.2114 14.289 27.5032 15.1882 27.7288C16.0873 27.9547 16.9624 28.0453 17.8136 28.0016H19.8817C20.3011 27.9683 20.6188 27.8472 20.8348 27.6382L20.9063 27.5554C20.9545 27.4897 20.9995 27.3876 21.0411 27.2502C21.0831 27.1126 21.104 26.9611 21.104 26.7962C21.0918 26.3229 21.131 25.8963 21.2207 25.5165C21.3103 25.1369 21.4125 24.8506 21.5267 24.6578C21.6409 24.4652 21.7698 24.3027 21.9132 24.1709C22.0569 24.0389 22.1593 23.9589 22.2194 23.9314C22.2791 23.9037 22.3268 23.8849 22.3628 23.8736C22.6505 23.7856 22.9891 23.8708 23.3791 24.1298C23.7688 24.3885 24.1343 24.7079 24.4761 25.0876C24.8178 25.4676 25.2284 25.8939 25.7078 26.3672C26.1875 26.8407 26.607 27.1926 26.9665 27.4242L27.326 27.6223C27.5661 27.7545 27.8778 27.8757 28.2615 27.9857C28.6445 28.0957 28.9801 28.1233 29.2683 28.0683L33.8716 28.0023C34.3269 28.0023 34.6812 27.9331 34.9325 27.7957C35.1843 27.6581 35.3339 27.5065 35.3821 27.3416C35.4302 27.1766 35.4328 26.9893 35.3913 26.7799C35.3486 26.571 35.3066 26.425 35.2648 26.3425Z" fill="white"/>
<defs>
<clipPath id="clip0">
<rect width="120" height="13.3333" fill="white" transform="translate(72 13)"/>
</clipPath>
</defs>
</svg>
