<svg width="27" height="25" viewBox="0 0 27 25" fill="none" xmlns="http://www.w3.org/2000/svg">
<path d="M19.3765 1.03233C17.3334 0.204766 14.3666 -0.0604864 13.0913 0.0111738L15.6054 5.77957C17.5911 8.26976 21.8578 13.2179 23.0383 13.0889C24.2188 12.9599 25.0969 12.2111 25.3884 11.8528C26.0807 10.957 26.8094 8.44944 25.2791 5.97716C23.2607 2.71632 21.2347 1.78502 19.3765 1.03233Z" fill="#909090"/>
<circle cx="12.0004" cy="12.0004" r="11.6254" fill="white" stroke="#2C3D52" stroke-width="0.75"/>
<mask id="mask0" mask-type="alpha" maskUnits="userSpaceOnUse" x="0" y="0" width="24" height="25">
<circle cx="11.9962" cy="12.005" r="11.4962" fill="#C4C4C4" stroke="#2C3D52"/>
</mask>
<g mask="url(#mask0)">
<path d="M4.26896 8.76368C2.92884 11.1413 0.8286 12.3842 -0.0540056 12.7084L-2.59375 8.76368L5.99815 -0.69281H14.1037V0.225821C12.8248 0.315883 9.80488 1.16768 7.61926 3.41401C5.67393 5.41338 5.94411 5.79164 4.26896 8.76368Z" fill="#2C3D52" stroke="#2C3D52"/>
</g>
</svg>
