<svg width="30" height="30" viewBox="0 0 30 30" fill="none" xmlns="http://www.w3.org/2000/svg">
<path fill-rule="evenodd" clip-rule="evenodd" d="M15 0C12.0333 0 9.13319 0.879735 6.66645 2.52796C4.19972 4.17618 2.27713 6.51886 1.14181 9.25975C0.00649929 12.0006 -0.290551 15.0166 0.288228 17.9264C0.867006 20.8361 2.29562 23.5088 4.3934 25.6066C6.49119 27.7044 9.16394 29.133 12.0737 29.7118C14.9834 30.2906 17.9994 29.9935 20.7403 28.8582C23.4811 27.7229 25.8238 25.8003 27.4721 23.3336C29.1203 20.8668 30 17.9667 30 15C30 11.0218 28.4197 7.20644 25.6066 4.3934C22.7936 1.58035 18.9783 0 15 0V0ZM18.8192 22.4317C18.8187 22.5509 18.7712 22.6651 18.6869 22.7494C18.6026 22.8337 18.4884 22.8812 18.3692 22.8817H11.5192C11.4 22.8812 11.2858 22.8337 11.2015 22.7494C11.1172 22.6651 11.0696 22.5509 11.0692 22.4317V21.3067C11.0678 21.1792 11.089 21.0526 11.1317 20.9325L16 9.74333C16.065 9.59083 16.1142 9.31083 15.75 9.31083H11.4875C11.3683 9.3104 11.2541 9.26284 11.1698 9.17855C11.0855 9.09425 11.0379 8.98005 11.0375 8.86083V7.73583C11.0379 7.61662 11.0855 7.50242 11.1698 7.41812C11.2541 7.33382 11.3683 7.28627 11.4875 7.28583H18.3383C18.4575 7.28627 18.5716 7.33385 18.6558 7.41817C18.7399 7.50249 18.7873 7.6167 18.7875 7.73583V8.86083C18.7895 8.98824 18.7686 9.11496 18.7258 9.235L18.6883 9.31833L13.855 20.425C13.7883 20.5775 13.7408 20.8583 14.105 20.8583H18.3692C18.4884 20.8588 18.6026 20.9063 18.6869 20.9906C18.7712 21.0749 18.8187 21.1891 18.8192 21.3083V22.4317Z" fill="#2C3D52"/>
</svg>
