<svg width="48" height="35" viewBox="0 0 48 35" fill="none" xmlns="http://www.w3.org/2000/svg">
<path d="M11.1217 21.921C11.2204 22.9879 11.1449 25.8882 8.36656 29.9212C8.15639 30.2255 8.19452 30.636 8.45552 30.8969C9.58826 32.0296 10.2896 32.7444 10.7815 33.2446C11.4283 33.9041 11.7236 34.2046 12.1558 34.5965C12.4444 34.8559 12.881 34.8604 13.1726 34.6061C18.0153 30.3922 23.3942 21.6847 22.6158 11.0168C22.1597 4.75278 17.5906 0.206116 11.752 0.206117C5.76014 0.206117 0.885249 5.08024 0.88525 11.0722C0.88525 16.8525 5.42211 21.5928 11.1217 21.921ZM11.752 1.73737C16.766 1.73737 20.692 5.68661 21.089 11.1275C21.089 11.1275 21.089 11.1275 21.089 11.1282C21.9646 23.1263 14.8325 30.9193 12.6776 32.9829C12.4676 32.7758 12.2275 32.5321 11.8739 32.1717C11.4477 31.7381 10.8645 31.1444 9.98225 30.2591C13.3551 25.0627 12.7187 21.3603 12.4399 20.8294C12.3075 20.5774 12.0361 20.4077 11.752 20.4077C6.60424 20.4077 2.4165 16.2199 2.4165 11.0722C2.4165 5.92511 6.60424 1.73737 11.752 1.73737Z" fill="#FE4349"/>
<path d="M36.4281 21.921C36.5276 22.9849 36.4543 25.8829 33.6729 29.9211C33.4635 30.2255 33.501 30.6359 33.7619 30.8968C34.8924 32.0274 35.593 32.7414 36.0842 33.2416C36.7331 33.9025 37.0293 34.2039 37.4614 34.5964C37.75 34.8558 38.1867 34.8596 38.4782 34.6068C43.321 30.3929 48.7005 21.6869 47.9237 11.0168L47.9237 11.016C47.4661 4.75273 42.8963 0.206063 37.0577 0.206063C31.0657 0.206064 26.1909 5.08018 26.1909 11.0721C26.1909 16.8531 30.7278 21.5942 36.4281 21.921ZM37.0577 1.73731C42.0708 1.73731 45.9992 5.68656 46.3969 11.1282L46.3969 11.1274C47.2702 23.1284 40.1381 30.92 37.9833 32.9829C37.7725 32.7758 37.5317 32.5305 37.1773 32.1694C36.7519 31.7357 36.1694 31.1428 35.2886 30.2591C38.6614 25.0619 38.0251 21.3602 37.7463 20.8301C37.6139 20.5781 37.3418 20.4076 37.0577 20.4076C31.9098 20.4076 27.7221 16.2199 27.7221 11.0721C27.7221 5.92505 31.9098 1.73731 37.0577 1.73731Z" fill="#FE4349"/>
</svg>
