<svg width="8" height="14" viewBox="0 0 8 14" fill="none" xmlns="http://www.w3.org/2000/svg">
<path d="M7.37192 0.00288005L5.58274 0C3.57265 0 2.27364 1.33706 2.27364 3.40653V4.97716H0.474692C0.319241 4.97716 0.193359 5.1036 0.193359 5.25955V7.53522C0.193359 7.69118 0.319385 7.81747 0.474692 7.81747H2.27364V13.5597C2.27364 13.7157 2.39952 13.842 2.55497 13.842H4.90208C5.05754 13.842 5.18342 13.7155 5.18342 13.5597V7.81747H7.28681C7.44226 7.81747 7.56814 7.69118 7.56814 7.53522L7.569 5.25955C7.569 5.18467 7.53929 5.11296 7.48661 5.05996C7.43393 5.00697 7.36216 4.97716 7.28752 4.97716H5.18342V3.64571C5.18342 3.00577 5.33542 2.6809 6.16636 2.6809L7.37164 2.68046C7.52694 2.68046 7.65282 2.55403 7.65282 2.39822V0.285125C7.65282 0.129458 7.52709 0.00316806 7.37192 0.00288005Z" fill="#2C3D52"/>
</svg>
