<svg width="5" height="6" viewBox="0 0 5 6" fill="none" xmlns="http://www.w3.org/2000/svg">
<path d="M4.36624 1.10398C4.50699 1.16695 4.66128 1.08509 4.71541 0.924524C4.76955 0.760805 4.69917 0.581344 4.56112 0.518375C3.66518 0.115375 2.64744 0.376695 1.97074 1.16695C1.68112 1.50384 1.4727 1.92258 1.36172 2.36336H1.1154C0.966531 2.36336 0.844727 2.50504 0.844727 2.6782C0.844727 2.85137 0.966531 2.99305 1.1154 2.99305H1.26698C1.25345 3.21344 1.26698 3.43383 1.30217 3.65422H1.11811C0.969238 3.65422 0.847434 3.7959 0.847434 3.96906C0.847434 4.14223 0.969238 4.28391 1.11811 4.28391H1.46728C1.58638 4.63024 1.75691 4.8947 1.97345 5.14658C2.43631 5.68496 3.05887 5.97462 3.69225 5.97462C3.98458 5.97462 4.28233 5.9148 4.56383 5.78571C4.70458 5.72274 4.77225 5.54013 4.71812 5.37956C4.66398 5.21585 4.50699 5.13713 4.36894 5.2001C3.6733 5.5118 2.88293 5.31345 2.35511 4.6995C2.24683 4.57356 2.1521 4.43818 2.0736 4.28076H4.21737C4.36624 4.28076 4.48804 4.13908 4.48804 3.96591C4.48804 3.79275 4.36624 3.65107 4.21737 3.65107H1.85165C1.80563 3.43068 1.7921 3.21029 1.80834 2.9899H4.36082C4.5097 2.9899 4.6315 2.84822 4.6315 2.67506C4.6315 2.50189 4.5097 2.36021 4.36082 2.36021H1.93285C2.02759 2.07685 2.16834 1.82183 2.35511 1.60773C2.88022 0.993789 3.6706 0.789141 4.36624 1.10398Z" fill="#48484C"/>
</svg>
