<svg width="187" height="37" viewBox="0 0 187 37" fill="none" xmlns="http://www.w3.org/2000/svg">
<path d="M55.4438 0.699021H55.9998V36.3929H55.4375C55.4375 24.4943 55.4375 12.5949 55.4375 0.694824L55.4438 0.699021Z" fill="white"/>
<g clip-path="url(#clip0)">
<path fill-rule="evenodd" clip-rule="evenodd" d="M127.949 34.2447C127.158 34.0871 126.377 33.8861 125.608 33.6426C125.603 32.8258 125.678 32.0104 125.834 31.2086C132.823 33.2258 134.441 31.9033 134.559 27.4365V26.3636L133.656 27.1869C132.483 28.2599 131.341 28.6433 129.622 28.5326C126.22 28.3139 124.337 25.8284 124.332 21.5469C124.332 18.9868 124.893 17.3606 126.316 15.84C128.214 13.8099 131.462 13.4188 133.736 14.9471L134.559 15.5029V14.3425L136.023 14.3888L137.488 14.4377L137.534 20.2089C137.611 29.2145 137.346 30.959 135.666 32.6726C133.414 34.5741 131.112 34.5663 127.947 34.2524L127.949 34.2447ZM132.375 25.3884C132.893 25.1003 133.377 24.7551 133.818 24.3592L134.554 23.6799V18.063L134.04 17.6231C132.239 16.1153 130.319 15.9995 128.865 17.3143C127.921 18.1685 127.504 19.3984 127.491 21.3797C127.476 23.77 127.991 24.9819 129.28 25.5865C130.134 25.9879 131.377 25.9107 132.385 25.3961L132.375 25.3884ZM90.0541 27.2976C88.3456 25.6663 87.5402 23.1139 87.8824 20.4045C88.1603 18.202 88.8319 16.7688 90.1518 15.5518C91.2016 14.5843 92.1845 14.1804 93.736 14.0723C97.5132 13.815 99.7543 16.388 99.7646 21.0194V22.2313C96.8803 22.3085 93.5894 22.0486 90.9006 22.45C91.2917 24.9356 93.0876 26.7907 95.5835 26.8242C97.0809 26.8242 98.1565 26.4433 99.6025 26.1577L99.6462 28.4477C99.6462 28.4477 96.2782 29.2454 94.9968 29.2351C93.1678 29.2149 91.4096 28.5257 90.0541 27.2976ZM96.7593 19.4139C96.7593 17.991 95.8305 16.653 94.7009 16.4395C92.9152 16.105 91.549 17.1393 91.0987 19.1643L90.9417 19.8744H96.7593V19.4139ZM111.963 27.2976C110.255 25.6663 109.449 23.1139 109.792 20.4045C110.07 18.202 110.741 16.7688 112.061 15.5518C113.108 14.5843 114.094 14.1804 115.645 14.0723C119.422 13.815 121.664 16.388 121.674 21.0194V22.2313C118.586 22.1902 115.648 22.203 112.733 22.1799C112.908 25.1131 114.791 26.9811 117.493 26.8293C119.008 26.8576 120.323 26.4459 121.514 26.1655C121.772 26.325 121.71 28.1801 121.437 28.4091C121.056 28.723 118.19 29.2505 116.909 29.2428C115.078 29.2218 113.318 28.5297 111.963 27.2976ZM118.653 19.4216C118.653 17.9987 117.724 16.6608 116.595 16.4472C114.809 16.1127 113.443 17.1471 112.992 19.172L112.835 19.8822H118.656V19.4139L118.653 19.4216ZM153.731 29.0189C151.639 28.247 150.61 25.9879 151.294 23.6954C151.57 22.7794 152.617 21.6524 153.679 21.1352C154.683 20.6438 156.71 20.2295 158.164 20.2218H159.127V19.0279C159.07 15.8425 156.554 16.0484 154.068 16.9515C153.402 17.1908 152.524 17.3889 152.367 17.4404C152.347 16.6916 152.269 16.1796 152.269 15.0372L153.649 14.5998C154.643 14.2955 155.672 14.1166 156.71 14.0672C159.394 13.9154 160.843 14.502 161.692 16.087C162.039 16.7405 162.065 17.039 162.142 21.4903C162.227 26.1938 162.227 26.2041 162.634 26.6363C162.875 26.8936 163.763 27.1509 164.036 27.1509C164.036 28.1338 164.141 28.0926 164.023 29.0138C163.308 29.1544 162.58 29.22 161.851 29.2093C161.427 29.1973 161.014 29.0642 160.662 28.8259C160.31 28.5875 160.034 28.2537 159.865 27.8637L159.623 27.4005L159.003 27.8997C157.567 29.0472 155.177 29.5541 153.739 29.0189H153.731ZM157.246 26.5025C157.69 26.3351 158.116 26.1248 158.519 25.8747L159.121 25.4836V22.0486H158.404C156.718 22.0486 154.709 22.9132 154.287 23.8189C154.065 24.2864 154.033 24.8214 154.197 25.3119C154.361 25.8025 154.709 26.2106 155.167 26.4511C155.851 26.7881 156.402 26.7984 157.266 26.4948L157.246 26.5025ZM76.8571 20.2089V11.5122H70V9.17072H86.8918V11.5122H80.0347V28.9057H76.8571V20.2089ZM103.449 18.4516V8H106.457V28.9057H103.449V18.4516ZM141.746 21.637V14.3425C142.721 14.3734 143.735 14.3425 144.713 14.3605C144.713 14.9626 144.738 15.5621 144.772 16.1616C145.806 14.9857 147.258 14.2593 148.819 14.1366L149.941 14.0208V16.8872C148.06 16.3366 146.097 17.5793 145.201 18.7861C144.857 19.2646 144.836 19.5091 144.756 24.0556L144.671 28.8208L141.746 28.9186V21.637ZM166.665 21.637V14.3553H169.676V16.8486C170.944 15.4231 172.48 14.0775 174.192 14.1032C176.281 14.0234 177.138 15.3743 178.069 16.8717C180.683 13.9282 185.448 13.0843 186.923 16.5836C187.064 21.3642 186.982 23.137 186.907 28.898C185.937 28.9315 185.045 28.898 184.077 28.9186C184.121 25.2006 184.077 20.9963 183.977 17.5047C183.604 16.774 182.914 16.1976 181.723 16.5141C180.531 16.8306 179.453 17.7543 178.324 19.064C178.324 22.3085 178.365 25.6663 178.365 28.9083H175.373C175.342 25.1088 175.31 21.3085 175.277 17.5073C174.675 16.8126 174.197 16.406 173.062 16.6762C172.352 16.8579 171.686 17.1811 171.105 17.6263C170.523 18.0715 170.037 18.6296 169.676 19.2672C169.676 22.4809 169.635 25.6997 169.635 28.9083H166.665C166.665 26.4811 166.665 24.0556 166.665 21.6318V21.637Z" fill="white"/>
</g>
<g clip-path="url(#clip1)">
<path d="M30.4373 7.13411C30.9525 6.9083 31.942 6.90463 31.9996 7.62979C31.9364 8.48714 31.7169 9.32246 31.583 10.1688C30.0169 17.9161 28.3641 25.6463 26.6244 33.3594C26.4105 33.6641 26.1464 33.9927 25.7335 34.0001C25.2295 33.9377 24.8333 33.598 24.4316 33.3318C21.9504 31.6539 19.4488 30.0016 16.9733 28.3181C15.6713 29.5114 14.3396 30.657 13.0674 31.876C12.7178 32.2009 12.3458 32.704 11.7971 32.5865C11.3693 32.357 11.2689 31.8411 11.0885 31.4354C10.1139 28.6816 9.2732 25.8636 8.40276 23.0657C6.25268 22.2488 4.08587 21.4685 1.9265 20.6791C1.24949 20.4202 0.447861 20.2183 0.0721561 19.5409C-0.165914 19.1076 0.23025 18.645 0.604094 18.4522C1.56754 17.9528 2.62211 17.6609 3.63019 17.2644C12.5783 13.9176 21.5041 10.5176 30.4373 7.13411ZM25.2295 12.3296C20.1147 15.6305 14.9968 18.9234 9.87582 22.2084L9.82932 22.2891C10.5733 24.7235 11.2987 27.1615 12.0612 29.5867C12.264 27.9748 12.489 26.3647 12.7141 24.7565C17.2374 20.4092 21.7558 16.0582 26.2692 11.7036C25.9049 11.8831 25.5565 12.0925 25.2276 12.3296H25.2295Z" fill="white"/>
</g>
<defs>
<clipPath id="clip0">
<rect width="117" height="26.4092" fill="white" transform="translate(70 8)"/>
</clipPath>
<clipPath id="clip1">
<rect width="32" height="27" fill="white" transform="translate(0 7)"/>
</clipPath>
</defs>
</svg>
