<svg width="23" height="21" viewBox="0 0 23 21" fill="none" xmlns="http://www.w3.org/2000/svg">
<path d="M21.1427 2.26684C19.9383 1.06247 18.3439 0.404215 16.6422 0.404215C14.9405 0.404215 13.3411 1.06735 12.1368 2.27171L11.5078 2.90071L10.869 2.26196C9.66466 1.0576 8.06046 0.389587 6.35875 0.389587C4.66191 0.389587 3.06259 1.05272 1.8631 2.25221C0.65874 3.45657 -0.00439151 5.05589 0.000484463 6.7576C0.000484463 8.45932 0.668492 10.0538 1.87286 11.2581L11.0299 20.4152C11.1567 20.542 11.3274 20.6102 11.4931 20.6102C11.6589 20.6102 11.8296 20.5468 11.9564 20.4201L21.1329 11.2776C22.3373 10.0733 23.0004 8.47395 23.0004 6.77223C23.0053 5.07052 22.3471 3.4712 21.1427 2.26684Z" fill="#FE4349"/>
</svg>
