<svg width="8" height="6" viewBox="0 0 8 6" fill="none" xmlns="http://www.w3.org/2000/svg">
<path d="M4.31216 5.22247L7.8722 1.66237C7.9546 1.58003 8 1.47011 8 1.35291C8 1.2357 7.9546 1.12578 7.8722 1.04344L7.61008 0.781267C7.43929 0.610667 7.1617 0.610667 6.99116 0.781267L4.00166 3.77077L1.00884 0.77795C0.926433 0.695609 0.81658 0.650146 0.699442 0.650146C0.582175 0.650146 0.472322 0.695609 0.389852 0.77795L0.127805 1.04013C0.0453992 1.12253 1.40506e-06 1.23239 1.39994e-06 1.34959C1.39481e-06 1.46679 0.0453991 1.57671 0.127805 1.65905L3.69109 5.22247C3.77376 5.305 3.88413 5.35034 4.00146 5.35008C4.11925 5.35034 4.22956 5.305 4.31216 5.22247Z" fill="white"/>
</svg>
