<svg width="20" height="11" viewBox="0 0 20 11" fill="none" xmlns="http://www.w3.org/2000/svg">
<path d="M19.0924 10.0256C19.0692 9.97961 19.0475 9.94146 19.0274 9.91089C18.6944 9.3601 18.058 8.68405 17.1186 7.88254L17.0988 7.86419L17.0888 7.85519L17.0788 7.84596H17.0687C16.6424 7.47274 16.3724 7.22179 16.2593 7.09331C16.0525 6.84857 16.0061 6.60084 16.1192 6.34982C16.199 6.16017 16.4991 5.75966 17.0186 5.14774C17.2919 4.82344 17.5083 4.56352 17.6681 4.3677C18.8208 2.96044 19.3205 2.06118 19.1672 1.66957L19.1077 1.57806C19.0677 1.52297 18.9644 1.47256 18.7981 1.4266C18.6313 1.38073 18.4182 1.37314 18.1583 1.40371L15.2802 1.42197C15.2336 1.4068 15.167 1.40821 15.0802 1.4266C14.9936 1.44499 14.9503 1.45421 14.9503 1.45421L14.9002 1.47719L14.8604 1.5048C14.8271 1.52306 14.7905 1.55517 14.7504 1.60108C14.7106 1.64682 14.6774 1.7005 14.6508 1.76167C14.3374 2.50197 13.9811 3.19027 13.5813 3.82653C13.3348 4.20592 13.1084 4.53472 12.9016 4.81312C12.6951 5.09142 12.5219 5.29647 12.3821 5.4279C12.2421 5.55947 12.1157 5.66487 12.0023 5.74449C11.8889 5.82414 11.8025 5.8578 11.7426 5.84549C11.6825 5.83318 11.626 5.82096 11.5725 5.80875C11.4793 5.75365 11.4043 5.67872 11.3478 5.5839C11.291 5.48907 11.2528 5.36972 11.2328 5.22594C11.2129 5.08207 11.2011 4.95831 11.1978 4.85426C11.1947 4.75034 11.1961 4.60335 11.2029 4.4137C11.2098 4.22395 11.2129 4.09557 11.2129 4.02826C11.2129 3.79573 11.2178 3.54337 11.2277 3.27111C11.2378 2.99885 11.246 2.78314 11.2528 2.62422C11.2596 2.46514 11.2627 2.29683 11.2627 2.1194C11.2627 1.94196 11.251 1.80281 11.2277 1.70181C11.2048 1.60095 11.1695 1.50304 11.1231 1.40812C11.0764 1.31329 11.008 1.23994 10.9182 1.18787C10.8283 1.13586 10.7165 1.09458 10.5834 1.06392C10.2303 0.990535 9.78061 0.950837 9.23418 0.944665C7.99504 0.932451 7.19882 1.00593 6.84571 1.16501C6.70581 1.23222 6.5792 1.32406 6.466 1.44023C6.34605 1.57488 6.32932 1.64836 6.41591 1.66045C6.81572 1.71544 7.09875 1.84701 7.26533 2.05501L7.32536 2.16523C7.37205 2.24476 7.41868 2.38555 7.46534 2.58741C7.51193 2.78928 7.54199 3.01258 7.55523 3.25719C7.58848 3.7039 7.58848 4.08628 7.55523 4.40438C7.52187 4.7226 7.49037 4.97034 7.4603 5.14777C7.43023 5.3252 7.38529 5.46898 7.32536 5.57908C7.26533 5.6892 7.22539 5.75651 7.20537 5.78094C7.18538 5.80537 7.16872 5.82077 7.15549 5.82681C7.06889 5.85728 6.97883 5.87281 6.88562 5.87281C6.79226 5.87281 6.67906 5.82993 6.54584 5.74423C6.41266 5.65854 6.27443 5.54083 6.13116 5.39091C5.9879 5.24096 5.82632 5.03141 5.64637 4.76224C5.46656 4.49306 5.27999 4.17494 5.08678 3.80785L4.92692 3.54164C4.82699 3.37037 4.69047 3.121 4.51724 2.79374C4.34391 2.46636 4.1907 2.14968 4.05751 1.84376C4.00427 1.71528 3.92429 1.61747 3.81771 1.55016L3.76769 1.52255C3.73444 1.49812 3.68106 1.47218 3.60783 1.44454C3.5345 1.41692 3.45798 1.39712 3.37797 1.38494L0.639715 1.4032C0.359901 1.4032 0.170045 1.46141 0.070076 1.57767L0.0300676 1.63267C0.0100809 1.66331 0 1.71223 0 1.77957C0 1.84688 0.0199867 1.92949 0.0599952 2.0273C0.45973 2.89005 0.894432 3.72209 1.3641 4.52357C1.83377 5.32504 2.24191 5.97065 2.58826 6.45982C2.93469 6.94934 3.2878 7.41134 3.64759 7.84561C4.00739 8.28003 4.24555 8.55843 4.36208 8.68074C4.47874 8.80327 4.57038 8.89488 4.63699 8.95605L4.88688 9.17627C5.04677 9.32314 5.28157 9.49903 5.59138 9.70394C5.90126 9.90899 6.24433 10.1109 6.62075 10.3099C6.99724 10.5085 7.43524 10.6707 7.93497 10.7961C8.43464 10.9216 8.92097 10.972 9.39404 10.9477H10.5433C10.7764 10.9292 10.953 10.8619 11.073 10.7457L11.1128 10.6997C11.1395 10.6632 11.1646 10.6064 11.1877 10.5301C11.211 10.4536 11.2227 10.3694 11.2227 10.2777C11.2158 10.0147 11.2376 9.77765 11.2875 9.56659C11.3373 9.3556 11.3941 9.19652 11.4576 9.08939C11.521 8.98235 11.5926 8.89202 11.6723 8.8188C11.7522 8.74541 11.8091 8.70096 11.8425 8.68566C11.8757 8.67026 11.9022 8.65981 11.9222 8.65355C12.0821 8.60462 12.2703 8.652 12.487 8.79591C12.7036 8.93969 12.9067 9.11722 13.0967 9.32821C13.2866 9.5394 13.5147 9.77633 13.7812 10.0394C14.0478 10.3025 14.2809 10.4981 14.4807 10.6268L14.6805 10.7369C14.8139 10.8104 14.9872 10.8777 15.2004 10.9388C15.4133 11 15.5998 11.0153 15.7599 10.9847L18.3182 10.9481C18.5712 10.9481 18.7681 10.9096 18.9078 10.8333C19.0477 10.7568 19.1308 10.6725 19.1576 10.5809C19.1844 10.4892 19.1858 10.3851 19.1627 10.2687C19.139 10.1526 19.1157 10.0715 19.0924 10.0256Z" fill="#2C3D52"/>
</svg>
