<svg width="181" height="37" viewBox="0 0 181 37" fill="none" xmlns="http://www.w3.org/2000/svg">
<path d="M52.4438 0.699021H52.9998V36.3929H52.4375C52.4375 24.4943 52.4375 12.5949 52.4375 0.694824L52.4438 0.699021Z" fill="white"/>
<g clip-path="url(#clip0)">
<path d="M73.6891 9.64625C74.7871 8.60479 76.2373 8.02028 77.7472 8.0105C78.9869 8.0105 80.2266 8.0105 81.4663 8.0105V29.3352H79.1707C79.1707 26.6254 79.1707 23.9156 79.1707 21.2084H77.2762C76.0684 23.913 74.8606 26.621 73.6528 29.3326H71C72.3303 26.4303 73.6658 23.5307 74.9831 20.6233C74.2669 20.2702 73.6391 19.7596 73.1462 19.1293C72.6533 18.499 72.3081 17.7652 72.1362 16.9825C71.5772 14.4937 71.8489 11.5629 73.6891 9.65406V9.64625ZM76.0727 10.4992C74.9029 11.2196 74.4836 12.6629 74.3749 13.9606C74.2636 15.4663 74.4085 17.1567 75.4619 18.3296C76.4273 19.2944 77.8973 19.2736 79.1655 19.2554C79.1655 16.152 79.1655 13.0495 79.1655 9.94793C78.1303 9.94793 76.9811 9.88551 76.0727 10.4992ZM142.784 8.0105C145.26 8.0105 147.737 8.0105 150.214 8.0105C150.214 14.7304 150.214 21.4494 150.214 28.1675H151.669C151.669 29.7487 151.669 31.3324 151.669 32.9162H150.504C150.432 31.7251 150.363 30.5332 150.297 29.3404C147.266 29.3404 144.237 29.3404 141.21 29.3404C141.146 30.5314 141.073 31.7199 141.008 32.911H139.844C139.844 31.3506 139.844 29.7669 139.844 28.1961C140.799 28.3183 141.153 27.2755 141.441 26.5578C142.173 24.3421 142.31 21.9886 142.476 19.6767C142.683 15.7914 142.722 11.901 142.781 8.0105H142.784ZM143.56 22.8337C143.335 24.6541 143.133 26.5708 142.142 28.1649C144.339 28.1649 146.542 28.1649 148.739 28.1649C148.739 21.8611 148.739 15.5565 148.739 9.25098H144.135C144.029 13.7838 143.967 18.3218 143.56 22.8416V22.8337ZM153.18 15.573C154.531 14.0126 157.094 13.4249 158.825 14.6758C160.937 16.3843 160.417 20.228 157.937 21.3514C158.646 21.6947 159.41 22.051 159.853 22.7401C161.116 24.5605 160.709 27.3613 159.017 28.7786C157.158 30.222 154.275 29.8059 152.805 27.9829C152.966 27.6006 153.121 27.2183 153.279 26.8386C154.28 28.0999 156.069 28.8489 157.609 28.1389C159.286 27.2053 159.565 24.7426 158.644 23.1978C157.808 21.9106 156.11 21.9522 154.762 21.9782C154.762 21.5933 154.762 21.198 154.762 20.8183C155.812 20.8183 157.011 20.8885 157.854 20.1318C158.866 19.2059 159.04 17.578 158.504 16.3557C158.051 15.3675 156.84 15.084 155.859 15.3025C154.878 15.4221 154.159 16.1971 153.53 16.8915C153.412 16.4494 153.293 16.009 153.173 15.5704L153.18 15.573ZM164.687 14.7356C166.056 13.5861 168.31 13.8722 169.307 15.3675C170.622 17.3049 170.601 19.7885 170.453 22.051C168.197 22.051 165.94 22.051 163.683 22.051C163.799 24.0508 163.823 26.4147 165.394 27.8867C166.89 28.9737 169.017 28.2091 170.052 26.8126C170.184 27.2105 170.327 27.6084 170.472 28.0063C168.888 30.0321 165.404 30.2844 163.81 28.1493C162.35 26.0038 162.278 23.2602 162.363 20.7533C162.521 18.6026 162.984 16.1997 164.692 14.733L164.687 14.7356ZM165.383 15.716C163.999 17.0527 163.851 19.1305 163.704 20.9405C165.515 20.9405 167.34 20.9405 169.157 20.9405C169.183 19.2502 169.224 17.3726 168.181 15.9448C168.028 15.7241 167.828 15.5401 167.595 15.4058C167.363 15.2715 167.104 15.1903 166.837 15.168C166.57 15.1456 166.301 15.1827 166.05 15.2765C165.799 15.3703 165.571 15.5186 165.383 15.7108V15.716ZM84.4375 14.3143H86.7513C86.7513 16.4363 86.7513 18.5593 86.7513 20.6831H90.1909C90.1909 18.5575 90.1909 16.4337 90.1909 14.3117H92.4788C92.4788 19.3204 92.4788 24.3273 92.4788 29.3326H90.1857C90.1857 27.1013 90.1857 24.87 90.1857 22.6387H86.7538V29.3352H84.4245C84.4245 24.3299 84.4245 19.3238 84.4245 14.3169L84.4375 14.3143ZM96.2574 14.3143C98.5867 14.2909 100.893 14.3143 103.212 14.3143C103.212 18.6902 103.212 23.0678 103.212 27.4472H104.405C104.405 29.0725 104.405 30.6979 104.405 32.3232H102.334C102.334 31.3246 102.334 30.3269 102.334 29.33C100.195 29.33 98.0553 29.33 95.9158 29.33V32.318H93.8298C93.8298 30.6927 93.8298 29.0699 93.8298 27.4446H94.7666C96.3583 23.2836 96.2496 18.7171 96.2678 14.3221L96.2574 14.3143ZM98.3279 16.1893C98.2865 19.9627 98.2321 23.8402 96.9433 27.4316C98.2658 27.4316 99.5883 27.4316 100.913 27.4316C100.913 23.6841 100.913 19.9341 100.913 16.1841L98.3279 16.1893ZM107.795 15.0762C109.301 13.5575 112.182 13.815 113.305 15.6718C114.493 17.6768 114.436 20.1084 114.436 22.3656H108.207C108.264 23.926 108.318 25.6684 109.379 26.9088C110.655 28.1103 112.697 27.429 113.965 26.5448C114.131 27.1611 114.307 27.7748 114.457 28.3964C113.14 29.3109 111.536 29.7105 109.946 29.5198C108.077 29.2598 106.716 27.624 106.237 25.866C105.624 23.6269 105.72 21.2474 106.087 18.9719C106.346 17.5702 106.812 16.1321 107.806 15.0711L107.795 15.0762ZM109.229 16.5066C108.372 17.6326 108.349 19.1279 108.222 20.4802H112.063C111.996 19.18 112.063 17.7574 111.333 16.6158C110.875 15.898 109.739 15.781 109.229 16.5066ZM116.828 14.3065H119.142C119.178 16.6184 119.079 18.9329 119.196 21.2448C120.324 18.9043 121.556 16.6106 122.755 14.3013C123.531 14.3013 124.307 14.3013 125.084 14.3013C123.854 16.6756 122.591 19.0317 121.37 21.4112C122.806 24.0378 124.196 26.6852 125.612 29.3222H123.091C121.78 26.8343 120.468 24.3473 119.157 21.8611C119.157 24.3507 119.157 26.8395 119.157 29.3274H116.828C116.828 24.3187 116.828 19.3117 116.828 14.3065ZM129.825 14.3065C130.526 14.1179 131.256 14.0721 131.975 14.1717C132.693 14.2713 133.384 14.5143 134.008 14.8864C133.892 15.6215 133.783 16.3575 133.682 17.0943C132.706 16.3141 131.264 15.6432 130.087 16.3869C128.71 17.4636 128.482 19.3802 128.381 21.0133C128.36 22.9508 128.324 25.091 129.455 26.7606C130.452 28.1207 132.561 27.7176 133.645 26.6826C133.818 27.2686 133.996 27.8537 134.181 28.438C132.685 29.6446 130.449 29.9983 128.746 29.0205C127.131 28.0557 126.368 26.1599 126.104 24.3759C125.783 22.1732 125.827 19.8691 126.512 17.734C127.03 16.1737 128.197 14.7226 129.825 14.3065ZM173.091 14.3065H174.488C174.488 16.517 174.488 18.7283 174.488 20.9405H179.6C179.6 18.7326 179.6 16.5196 179.6 14.3169C180.063 14.3169 180.529 14.3169 180.997 14.3169C180.997 19.3238 180.997 24.3308 180.997 29.3378H179.6C179.6 26.9331 179.6 24.5285 179.6 22.1238H174.491C174.491 24.5302 174.491 26.9357 174.491 29.3404H173.088C173.088 24.3369 173.088 19.3325 173.088 14.3273L173.091 14.3065Z" fill="white"/>
</g>
<path fill-rule="evenodd" clip-rule="evenodd" d="M15 5C17.9667 5 20.8668 5.87973 23.3335 7.52796C25.8003 9.17618 27.7229 11.5189 28.8582 14.2597C29.9935 17.0006 30.2906 20.0166 29.7118 22.9263C29.133 25.8361 27.7044 28.5088 25.6066 30.6066C23.5088 32.7044 20.8361 34.133 17.9263 34.7118C15.0166 35.2906 12.0006 34.9935 9.25975 33.8582C6.51886 32.7229 4.17618 30.8003 2.52796 28.3335C0.879734 25.8668 0 22.9667 0 20C0 16.0218 1.58035 12.2064 4.3934 9.3934C7.20644 6.58035 11.0218 5 15 5V5Z" fill="white"/>
<path fill-rule="evenodd" clip-rule="evenodd" d="M18.7891 13.8606V12.7356C18.7888 12.6165 18.7415 12.5023 18.6573 12.418C18.5731 12.3337 18.459 12.2861 18.3399 12.2856H11.4891C11.3699 12.2861 11.2556 12.3336 11.1713 12.4179C11.0871 12.5022 11.0395 12.6164 11.0391 12.7356V13.8606C11.0395 13.9799 11.0871 14.0941 11.1713 14.1784C11.2556 14.2627 11.3699 14.3102 11.4891 14.3106H15.7516C16.1149 14.3106 16.0657 14.5906 16.0016 14.7431L11.1332 25.9323C11.0906 26.0524 11.0694 26.179 11.0707 26.3065V27.4315C11.0712 27.5507 11.1187 27.6649 11.203 27.7492C11.2873 27.8335 11.4015 27.881 11.5207 27.8815H18.3707C18.4899 27.881 18.6041 27.8335 18.6884 27.7492C18.7727 27.6649 18.8203 27.5507 18.8207 27.4315V26.3065C18.8203 26.1873 18.7727 26.0731 18.6884 25.9888C18.6041 25.9045 18.4899 25.8569 18.3707 25.8565H14.1066C13.7441 25.8565 13.7916 25.5756 13.8566 25.4231L18.6899 14.3165L18.7274 14.2331C18.7701 14.1131 18.791 13.9864 18.7891 13.859V13.8606Z" fill="#2C3D52"/>
<defs>
<clipPath id="clip0">
<rect width="110" height="24.9057" fill="white" transform="translate(71 8)"/>
</clipPath>
</defs>
</svg>
