<svg width="16" height="16" viewBox="0 0 16 16" fill="none" xmlns="http://www.w3.org/2000/svg">
<path d="M3.0578 11.2146C3.10766 11.2542 3.16727 11.2737 3.22661 11.2737C3.30627 11.2737 3.38512 11.2388 3.43877 11.1716C3.53198 11.0545 3.51274 10.8841 3.39569 10.7909C3.17865 10.618 2.96838 10.4302 2.77112 10.2327L0.76655 8.22811L2.83371 6.16095C4.82095 4.17399 7.71183 3.49577 10.377 4.39049C10.5187 4.43736 10.6724 4.36149 10.7203 4.21978C10.7677 4.07807 10.6916 3.92416 10.5496 3.87647C7.68772 2.91592 4.58413 3.64426 2.45057 5.77754L0 8.22811L2.38771 10.6158C2.59933 10.8277 2.82504 11.029 3.0578 11.2146Z" fill="#90A9ED"/>
<path d="M13.6123 5.7786C13.247 5.41334 12.8466 5.08385 12.4217 4.7988C12.2976 4.71562 12.1288 4.74868 12.0456 4.87278C11.9621 4.99688 11.9955 5.16541 12.1196 5.24887C12.5152 5.51414 12.8886 5.82141 13.2289 6.16174L15.2335 8.16631L13.1663 10.2335C11.1652 12.2345 8.14998 12.9111 5.48399 11.9557C5.34309 11.905 5.18783 11.9785 5.13743 12.1194C5.08703 12.2603 5.16019 12.4153 5.30109 12.4659C6.16329 12.7748 7.05963 12.9247 7.95001 12.9247C10.015 12.9247 12.048 12.118 13.5494 10.6166L15.9997 8.16631L13.6123 5.7786Z" fill="#90A9ED"/>
<path d="M8.27489 11.3189C7.69151 11.3189 7.12303 11.1569 6.63016 10.8501C6.50362 10.7716 6.33643 10.81 6.25704 10.9371C6.17792 11.0642 6.21694 11.2311 6.34402 11.3102C6.92252 11.6706 7.59044 11.8608 8.27489 11.8608C10.2919 11.8608 11.9329 10.2199 11.9329 8.20285C11.9329 7.47532 11.7196 6.77244 11.3164 6.17009C11.233 6.04572 11.0644 6.01239 10.9406 6.09558C10.8162 6.17904 10.7829 6.3473 10.8661 6.4714C11.2094 6.98433 11.3909 7.58289 11.3909 8.20285C11.3909 9.92128 9.99306 11.3189 8.27489 11.3189Z" fill="#90A9ED"/>
<path d="M8.27489 5.08684C8.83442 5.08684 9.38285 5.23669 9.86137 5.52038C9.9898 5.59652 10.1562 5.55425 10.2326 5.42528C10.3087 5.29657 10.2665 5.13047 10.1375 5.05406C9.5755 4.72105 8.93143 4.54492 8.27462 4.54492C6.25758 4.54492 4.61664 6.18586 4.61664 8.2029C4.61664 8.76758 4.74182 9.30923 4.98894 9.81268C5.03609 9.9086 5.13228 9.96442 5.23253 9.96442C5.27237 9.96442 5.31328 9.95548 5.35149 9.93678C5.48588 9.87067 5.54143 9.70836 5.47559 9.57423C5.26532 9.14557 5.15856 8.6844 5.15856 8.20317C5.15883 6.48473 6.55672 5.08684 8.27489 5.08684Z" fill="#90A9ED"/>
<path d="M14.8002 1.50817C14.6942 1.40222 14.523 1.40222 14.417 1.50817L1.81734 14.1079C1.71139 14.2138 1.71139 14.3851 1.81734 14.491C1.87017 14.5439 1.93954 14.5704 2.00891 14.5704C2.07827 14.5704 2.14764 14.5439 2.20048 14.491L14.8002 1.89131C14.9061 1.78563 14.9061 1.61412 14.8002 1.50817Z" fill="#90A9ED"/>
</svg>
