<svg width="17" height="17" viewBox="0 0 17 17" fill="none" xmlns="http://www.w3.org/2000/svg">
<path d="M16.0384 1.29464C15.9276 1.18385 15.7486 1.18385 15.6378 1.29464C15.527 1.40542 15.527 1.58449 15.6378 1.69527C16.6963 2.7538 16.6963 4.47619 15.6378 5.535C15.527 5.64579 15.527 5.82485 15.6378 5.93564C15.693 5.99089 15.7656 6.01865 15.8381 6.01865C15.9106 6.01865 15.9832 5.99089 16.0384 5.93564C17.3179 4.65639 17.3179 2.57417 16.0384 1.29464Z" fill="#2C3D52"/>
<path d="M14.845 1.93941C14.7343 1.82863 14.5552 1.82863 14.4444 1.93941C14.3336 2.05019 14.3336 2.22926 14.4444 2.34004C14.7949 2.69053 14.9878 3.15746 14.9878 3.65443C14.9878 4.15139 14.7949 4.61804 14.4444 4.96853C14.3336 5.07931 14.3336 5.25838 14.4444 5.36916C14.4997 5.42441 14.5722 5.45218 14.6447 5.45218C14.7173 5.45218 14.7898 5.42441 14.845 5.36916C15.3026 4.91186 15.5545 4.30269 15.5545 3.65443C15.5545 3.00616 15.3029 2.39671 14.845 1.93941Z" fill="#2C3D52"/>
<path d="M1.35931 1.69527C1.47009 1.58449 1.47009 1.40542 1.35931 1.29464C1.24852 1.18385 1.06946 1.18385 0.958673 1.29464C-0.32086 2.57417 -0.32086 4.6561 0.958673 5.93564C1.01392 5.99089 1.08646 6.01865 1.15899 6.01865C1.23152 6.01865 1.30406 5.99089 1.35931 5.93564C1.47009 5.82485 1.47009 5.64579 1.35931 5.535C0.30049 4.47647 0.30049 2.75409 1.35931 1.69527Z" fill="#2C3D52"/>
<path d="M2.55248 1.86129C2.4417 1.7505 2.26263 1.7505 2.15185 1.86129C1.69427 2.31859 1.44238 2.92775 1.44238 3.57602C1.44238 4.22429 1.69427 4.83345 2.15185 5.29104C2.2071 5.34629 2.27963 5.37405 2.35217 5.37405C2.4247 5.37405 2.49723 5.34629 2.55248 5.29104C2.66327 5.18025 2.66327 5.00119 2.55248 4.8904C2.202 4.53992 2.00905 4.07299 2.00905 3.57602C2.00905 3.07905 2.20172 2.6124 2.55248 2.26192C2.66298 2.15142 2.66298 1.97207 2.55248 1.86129Z" fill="#2C3D52"/>
<path d="M8.49928 15.5833C8.81225 15.5833 9.06595 15.3296 9.06595 15.0166C9.06595 14.7037 8.81225 14.45 8.49928 14.45C8.18632 14.45 7.93262 14.7037 7.93262 15.0166C7.93262 15.3296 8.18632 15.5833 8.49928 15.5833Z" fill="#2C3D52"/>
<path d="M12.0679 0H4.9307C4.24248 0 3.68262 0.56015 3.68262 1.24808V15.7516C3.68262 16.4398 4.24248 17 4.9307 17H12.0676C12.7561 17 13.316 16.4398 13.316 15.7519V1.24808C13.316 0.56015 12.7561 0 12.0679 0ZM9.34929 0.85H9.63262C9.78902 0.85 9.91595 0.97665 9.91595 1.13333C9.91595 1.29002 9.78902 1.41667 9.63262 1.41667H9.34929C9.19288 1.41667 9.06595 1.29002 9.06595 1.13333C9.06595 0.97665 9.19288 0.85 9.34929 0.85ZM7.36595 0.85H8.49928C8.65568 0.85 8.78262 0.97665 8.78262 1.13333C8.78262 1.29002 8.65568 1.41667 8.49928 1.41667H7.36595C7.20955 1.41667 7.08262 1.29002 7.08262 1.13333C7.08262 0.97665 7.20955 0.85 7.36595 0.85ZM8.49928 16.15C7.87425 16.15 7.36595 15.6417 7.36595 15.0167C7.36595 14.3916 7.87425 13.8833 8.49928 13.8833C9.12432 13.8833 9.63262 14.3916 9.63262 15.0167C9.63262 15.6417 9.12432 16.15 8.49928 16.15ZM12.7493 13.0333H4.24928V2.26667H12.7493V13.0333Z" fill="#2C3D52"/>
</svg>
