<svg width="4" height="6" viewBox="0 0 4 6" fill="none" xmlns="http://www.w3.org/2000/svg">
<path d="M3.42926 2.59922L0.759168 0.0900771C0.697412 0.0319968 0.614973 0 0.527071 0C0.439169 0 0.35673 0.0319968 0.294975 0.0900771L0.0983411 0.274815C-0.0296096 0.395193 -0.0296096 0.590841 0.0983411 0.711036L2.34048 2.81806L0.0958533 4.92742C0.0340974 4.9855 0 5.06293 0 5.14549C0 5.22814 0.0340974 5.30556 0.0958533 5.36369L0.292487 5.54838C0.354291 5.60646 0.436681 5.63846 0.524584 5.63846C0.612486 5.63846 0.694924 5.60646 0.75668 5.54838L3.42926 3.03695C3.49116 2.97869 3.52516 2.90089 3.52496 2.8182C3.52516 2.73518 3.49116 2.65743 3.42926 2.59922Z" fill="#2C3D52"/>
</svg>
