<svg width="10" height="9" viewBox="0 0 10 9" fill="none" xmlns="http://www.w3.org/2000/svg">
<path d="M9.98628 3.40112C9.95344 3.30632 9.86724 3.23861 9.76256 3.22313L6.64284 2.80525L5.23896 0.145099C5.19175 0.0561049 5.09529 0 4.99061 0C4.88594 0 4.78947 0.0561049 4.74227 0.147034L3.35686 2.81492L0.237139 3.25215C0.132464 3.26763 0.0462609 3.33534 0.0134217 3.43014C-0.0194175 3.52494 0.00931679 3.62941 0.0852575 3.69712L2.34911 5.76526L1.82574 8.69433C1.80726 8.79299 1.85037 8.89166 1.93657 8.9497C1.98377 8.98259 2.04124 9 2.09871 9C2.14387 9 2.18697 8.99033 2.22802 8.96905L5.01319 7.57803L7.80658 8.95357C7.84763 8.97292 7.89073 8.98259 7.93383 8.98259C8.08571 8.98259 8.21091 8.86458 8.21091 8.72141C8.21091 8.70013 8.20886 8.68078 8.2027 8.66144L7.66291 5.74978L9.91239 3.67003C9.99244 3.60039 10.0191 3.49592 9.98628 3.40112Z" fill="white"/>
</svg>
