<svg width="30" height="30" viewBox="0 0 30 30" fill="none" xmlns="http://www.w3.org/2000/svg">
<path d="M15 30C23.2843 30 30 23.2843 30 15C30 6.71573 23.2843 0 15 0C6.71573 0 0 6.71573 0 15C0 23.2843 6.71573 30 15 30Z" fill="#36AEE3"/>
<g clip-path="url(#clip0)">
<path d="M22.121 8.07462C22.4108 7.94916 22.9674 7.94712 22.9998 8.34999C22.9642 8.8263 22.8408 9.29036 22.7654 9.76055C21.8845 14.0646 20.9548 18.3592 19.9762 22.6442C19.8559 22.8135 19.7074 22.9961 19.4751 23.0002C19.1916 22.9655 18.9687 22.7768 18.7428 22.6289C17.3471 21.6967 15.94 20.7788 14.5475 19.8435C13.8151 20.5065 13.066 21.1429 12.3504 21.8201C12.1538 22.0006 11.9445 22.2801 11.6359 22.2148C11.3953 22.0873 11.3388 21.8007 11.2373 21.5753C10.6891 20.0454 10.2162 18.4799 9.72655 16.9255C8.51714 16.4716 7.2983 16.0382 6.08366 15.5996C5.70284 15.4558 5.25192 15.3436 5.04059 14.9673C4.90667 14.7265 5.12952 14.4695 5.3398 14.3624C5.88174 14.085 6.47494 13.9229 7.04198 13.7025C12.0753 11.8432 17.096 9.95433 22.121 8.07462ZM19.1916 10.961C16.3145 12.7948 13.4357 14.6242 10.5551 16.4492L10.529 16.4941C10.9475 17.8465 11.3555 19.2009 11.7844 20.5483C11.8985 19.6528 12.0251 18.7583 12.1517 17.8649C14.696 15.4497 17.2376 13.0325 19.7764 10.6132C19.5715 10.7129 19.3755 10.8293 19.1905 10.961H19.1916Z" fill="white"/>
</g>
<defs>
<clipPath id="clip0">
<rect width="18" height="15" fill="white" transform="translate(5 8)"/>
</clipPath>
</defs>
</svg>
