<svg width="9" height="9" viewBox="0 0 9 9" fill="none" xmlns="http://www.w3.org/2000/svg">
<path d="M8.98283 6.42879C8.9233 6.24555 8.72649 6.14537 8.54323 6.2048L8.08955 6.3522C8.36747 5.77744 8.51303 5.14541 8.51303 4.50001C8.51303 2.15296 6.6036 0.2435 4.25651 0.2435C1.90946 0.2435 0 2.15296 0 4.50001C0 6.84707 1.90946 8.75653 4.25651 8.75653C4.44919 8.75653 4.60541 8.6003 4.60541 8.40763C4.60541 8.21499 4.44919 8.05874 4.25651 8.05874C2.29422 8.05874 0.697789 6.46234 0.697789 4.50001C0.697789 2.53772 2.29422 0.941289 4.25651 0.941289C6.21884 0.941289 7.81524 2.53772 7.81524 4.50001C7.81524 5.04072 7.69324 5.57006 7.46012 6.051L7.30513 5.57383C7.24559 5.39061 7.04873 5.29036 6.86552 5.34984C6.68225 5.4094 6.58194 5.60623 6.64147 5.78947L7.05289 7.05576C7.10076 7.20322 7.23752 7.29697 7.38462 7.29697C7.42032 7.29697 7.45669 7.29145 7.4925 7.27984L8.75882 6.86848C8.94206 6.80891 9.04237 6.61211 8.98283 6.42879Z" fill="#2C3D52" fill-opacity="0.7"/>
</svg>
