<svg width="24" height="19" viewBox="0 0 24 19" fill="none" xmlns="http://www.w3.org/2000/svg">
<path d="M22.9177 8.1524H0.964718C0.431935 8.1524 0 8.63357 0 9.22718C0 9.8208 0.431935 10.302 0.964718 10.302H22.9177C23.4505 10.302 23.8824 9.8208 23.8824 9.22718C23.8824 8.63362 23.4505 8.1524 22.9177 8.1524Z" fill="#2C3D52"/>
<path d="M22.9177 0H0.964718C0.431935 0 0 0.481213 0 1.07478C0 1.66834 0.431935 2.14956 0.964718 2.14956H22.9177C23.4505 2.14956 23.8824 1.66834 23.8824 1.07478C23.8824 0.481213 23.4505 0 22.9177 0Z" fill="#2C3D52"/>
<path d="M22.9177 16.3049H0.964718C0.431935 16.3049 0 16.786 0 17.3796C0 17.9733 0.431935 18.4544 0.964718 18.4544H22.9177C23.4505 18.4544 23.8824 17.9733 23.8824 17.3796C23.8824 16.786 23.4505 16.3049 22.9177 16.3049Z" fill="#2C3D52"/>
</svg>
