<svg width="19" height="12" viewBox="0 0 19 12" fill="none" xmlns="http://www.w3.org/2000/svg">
<path d="M18.8462 5.54157C15.9764 1.86604 12.8778 0 9.62798 0C8.34046 0 7.03742 0.298889 5.74991 0.884551C4.73773 1.34904 3.73331 1.99125 2.76767 2.79502C1.135 4.15618 0.173239 5.51329 0.134458 5.56984C-0.0516893 5.83642 -0.0439331 6.19993 0.153848 6.45843C3.01974 10.138 6.1222 12 9.37202 12C10.6595 12 11.9626 11.7011 13.2501 11.1154C14.2623 10.651 15.2667 10.0088 16.2323 9.20498C17.865 7.84382 18.8268 6.4867 18.8655 6.43016C19.0517 6.16358 19.0439 5.80007 18.8462 5.54157ZM15.3287 8.09424C13.9792 9.21306 11.854 10.5459 9.37202 10.5459C6.69228 10.5459 4.07846 9.01515 1.59649 5.99394C1.98818 5.51329 2.70562 4.70953 3.66738 3.90979C5.01695 2.79098 7.14213 1.45809 9.6241 1.45809C12.3038 1.45809 14.9177 2.98889 17.3996 6.0101C17.0079 6.49074 16.2905 7.29855 15.3287 8.09424Z" fill="white"/>
<path d="M12.0712 5.275C11.6872 5.275 11.3731 5.60217 11.3731 6.00203C11.3731 7.08046 10.5316 7.95693 9.49611 7.95693C8.46067 7.95693 7.61913 7.08046 7.61913 6.00203C7.61913 4.92361 8.46067 4.04713 9.49611 4.04713C9.88004 4.04713 10.1942 3.71997 10.1942 3.32011C10.1942 2.92024 9.88004 2.59308 9.49611 2.59308C7.68893 2.59308 6.22302 4.12388 6.22302 6.00203C6.22302 7.88019 7.68893 9.41098 9.49611 9.41098C11.3033 9.41098 12.7692 7.88019 12.7692 6.00203C12.7692 5.60217 12.4551 5.275 12.0712 5.275Z" fill="white"/>
</svg>
