<svg width="14" height="14" viewBox="0 0 14 14" fill="none" xmlns="http://www.w3.org/2000/svg">
<path d="M12.9214 8.79482C12.7289 8.79482 12.5728 8.95091 12.5728 9.1435V12.2393C12.5721 12.8168 12.1042 13.2848 11.5268 13.2853H1.74336C1.16587 13.2848 0.698026 12.8168 0.697345 12.2393V3.15327C0.698026 2.57592 1.16587 2.10794 1.74336 2.10726H4.83919C5.03178 2.10726 5.18787 1.95117 5.18787 1.75858C5.18787 1.56613 5.03178 1.40991 4.83919 1.40991H1.74336C0.780972 1.411 0.0010896 2.19088 0 3.15327V12.2395C0.0010896 13.2019 0.780972 13.9817 1.74336 13.9828H11.5268C12.4892 13.9817 13.269 13.2019 13.2701 12.2395V9.1435C13.2701 8.95091 13.114 8.79482 12.9214 8.79482Z" fill="#2C3D52"/>
<path d="M13.1293 0.512796C12.5165 -0.0999686 11.5231 -0.0999686 10.9103 0.512796L4.68976 6.73333C4.64713 6.77596 4.61634 6.82881 4.60027 6.88683L3.78225 9.84006C3.74861 9.96114 3.7828 10.0908 3.8716 10.1797C3.96054 10.2685 4.0902 10.3027 4.21129 10.2692L7.16451 9.45107C7.22254 9.435 7.27538 9.40422 7.31801 9.36159L13.5384 3.14092C14.1502 2.52774 14.1502 1.53512 13.5384 0.921942L13.1293 0.512796ZM5.44948 6.95997L10.5405 1.86881L12.1824 3.5107L7.09124 8.60186L5.44948 6.95997ZM5.12151 7.61809L6.43326 8.92997L4.6188 9.43268L5.12151 7.61809ZM13.0454 2.64787L12.6756 3.01765L11.0336 1.37562L11.4035 1.00584C11.7438 0.665477 12.2957 0.665477 12.6361 1.00584L13.0454 1.41499C13.3852 1.75576 13.3852 2.30723 13.0454 2.64787Z" fill="#2C3D52"/>
</svg>
