<svg width="32" height="27" viewBox="0 0 32 27" fill="none" xmlns="http://www.w3.org/2000/svg">
<path d="M30.4373 0.134112C30.9525 -0.0916991 31.942 -0.0953708 31.9996 0.629794C31.9364 1.48714 31.7169 2.32246 31.583 3.16879C30.0169 10.9161 28.3641 18.6463 26.6244 26.3594C26.4105 26.6641 26.1464 26.9927 25.7335 27.0001C25.2295 26.9377 24.8333 26.598 24.4316 26.3318C21.9504 24.6539 19.4488 23.0016 16.9733 21.3181C15.6713 22.5114 14.3396 23.657 13.0674 24.876C12.7178 25.2009 12.3458 25.704 11.7971 25.5865C11.3693 25.357 11.2689 24.8411 11.0885 24.4354C10.1139 21.6816 9.2732 18.8636 8.40276 16.0657C6.25269 15.2488 4.08587 14.4685 1.9265 13.6791C1.24949 13.4202 0.447861 13.2183 0.0721561 12.5409C-0.165914 12.1076 0.23025 11.645 0.604094 11.4522C1.56754 10.9528 2.62211 10.6609 3.63019 10.2644C12.5783 6.91762 21.5041 3.5176 30.4373 0.134112ZM25.2295 5.3296C20.1147 8.63047 14.9968 11.9234 9.87582 15.2084L9.82932 15.2891C10.5733 17.7235 11.2987 20.1615 12.0612 22.5867C12.264 20.9748 12.489 19.3647 12.7141 17.7565C17.2374 13.4092 21.7558 9.05823 26.2692 4.70357C25.9049 4.88311 25.5565 5.09252 25.2276 5.3296H25.2295Z" fill="#2C3D52"/>
</svg>
