<svg width="9" height="13" viewBox="0 0 9 13" fill="none" xmlns="http://www.w3.org/2000/svg">
<path d="M3.70138 9.09972C2.61796 8.99526 1.6411 8.7486 0.804745 8.14393C0.70097 8.0687 0.593828 7.99618 0.499128 7.91215C0.13306 7.58715 0.0961753 7.21493 0.385839 6.83134C0.633641 6.5031 1.04962 6.41528 1.48199 6.60376C1.56572 6.6403 1.64549 6.68589 1.72189 6.73487C3.28057 7.72489 5.4218 7.75222 6.98633 6.77939C7.14133 6.66952 7.30702 6.57995 7.49906 6.53422C7.87244 6.44559 8.22066 6.57237 8.42103 6.87437C8.64995 7.21926 8.64703 7.5559 8.36497 7.82366C7.93231 8.23418 7.41197 8.53117 6.83381 8.73846C6.28713 8.93438 5.68833 9.03301 5.09569 9.0985C5.18512 9.18848 5.22727 9.23272 5.28318 9.28468C6.08792 10.0321 6.89617 10.7764 7.69827 11.5261C7.97154 11.7816 8.02862 12.0983 7.87815 12.3955C7.71363 12.7202 7.34537 12.9338 6.98428 12.911C6.75551 12.8963 6.57708 12.7911 6.41857 12.6435C5.81128 12.0786 5.19258 11.5241 4.59759 10.9485C4.42444 10.7811 4.34116 10.8128 4.18835 10.9581C3.57741 11.5395 2.95651 12.112 2.33196 12.6812C2.05151 12.9368 1.71779 12.9828 1.39256 12.8368C1.04684 12.6819 0.826847 12.3557 0.843826 12.0278C0.855535 11.8061 0.973508 11.6367 1.13817 11.4847C1.93456 10.7496 2.72876 10.0126 3.52325 9.27629C3.5758 9.22731 3.62483 9.17535 3.70138 9.09972Z" fill="#2C3D52" fill-opacity="0.5"/>
<path d="M4.36193 6.53912C2.42914 6.53303 0.844258 5.05186 0.855528 3.26233C0.866653 1.45304 2.45256 -0.0049934 4.40438 1.28534e-05C6.36016 0.0048838 7.92996 1.48389 7.92015 3.31199C7.9102 5.09786 6.31434 6.54535 4.36193 6.53912ZM6.1185 3.26666C6.11514 2.37812 5.34963 1.67075 4.39033 1.66994C3.42298 1.66899 2.65059 2.38921 2.65806 3.28587C2.66523 4.17103 3.43732 4.87339 4.39926 4.87015C5.35826 4.86704 6.12172 4.15507 6.1185 3.26666Z" fill="#2C3D52"/>
</svg>
