<svg width="55" height="37" viewBox="0 0 55 37" fill="none" xmlns="http://www.w3.org/2000/svg">
<path d="M54.6183 11.2129C54.4876 10.8323 54.0242 10.5363 53.6373 10.5363C51.962 10.5363 50.287 10.5363 48.6117 10.5363C48.225 10.5363 47.7614 10.8323 47.6306 11.2129C47.5026 11.5854 47.407 11.9178 47.3435 12.2304L43.9865 2.94298C43.4328 1.4115 41.9664 0.382568 40.338 0.382568H14.6625C13.034 0.382568 11.5679 1.4115 11.0139 2.94326L7.65673 12.2315C7.59304 11.9186 7.49743 11.5858 7.36936 11.2129C7.23863 10.8323 6.77511 10.5363 6.38837 10.5363C4.71321 10.5363 3.03804 10.5363 1.36274 10.5363C0.976002 10.5363 0.512475 10.8323 0.381751 11.2129C-0.127209 12.6947 -0.126931 13.5431 0.38189 15.0251C0.512614 15.4057 0.976141 15.7017 1.36288 15.7017C3.03818 15.7017 4.71335 15.7017 6.38851 15.7017C6.39325 15.7017 6.39826 15.7004 6.40314 15.7003L6.32733 15.9103C5.30258 16.2508 4.56269 17.2155 4.56269 18.3546V26.1319V26.7728V35.3789C4.56269 36.063 5.11708 36.6174 5.80123 36.6174H12.0346C12.7186 36.6174 13.2731 36.063 13.2731 35.3789V29.3497H41.7272V35.3789C41.7272 36.063 42.2817 36.6174 42.9657 36.6174H49.1991C49.8833 36.6174 50.4376 36.063 50.4376 35.3789V26.7728V26.1319V18.3546C50.4376 17.2157 49.698 16.2512 48.6737 15.9104L48.5978 15.7003C48.6024 15.7004 48.6072 15.7015 48.6118 15.7015C50.2871 15.7015 51.9622 15.7015 53.6375 15.7015C54.0243 15.7015 54.4877 15.4055 54.6185 15.0249C55.1273 13.5431 55.127 12.6947 54.6183 11.2129ZM15.1367 4.94035H39.8603L43.7775 15.7776H11.2196L15.1367 4.94035ZM15.8263 23.4122H10.6115C9.49272 23.4122 8.58587 22.5053 8.58587 21.3865C8.58587 20.2678 9.49258 19.3608 10.6115 19.3608H15.8263C16.945 19.3608 17.852 20.2677 17.852 21.3865C17.8521 22.5053 16.945 23.4122 15.8263 23.4122ZM44.3884 23.4122H39.1736C38.055 23.4122 37.148 22.5053 37.148 21.3865C37.148 20.2678 38.055 19.3608 39.1736 19.3608H44.3884C45.5072 19.3608 46.4141 20.2677 46.4141 21.3865C46.4141 22.5053 45.5072 23.4122 44.3884 23.4122Z" fill="#DADCDF"/>
</svg>
