<svg width="39" height="21" viewBox="0 0 39 21" fill="none" xmlns="http://www.w3.org/2000/svg">
<path d="M38.1516 19.053C38.1052 18.9611 38.0619 18.8848 38.0216 18.8237C37.3562 17.7231 36.0845 16.3722 34.2074 14.7706L34.1677 14.7339L34.1479 14.7159L34.1278 14.6975H34.1077C33.2557 13.9517 32.7162 13.4502 32.4903 13.1935C32.0769 12.7044 31.9843 12.2094 32.2103 11.7078C32.3699 11.3288 32.9694 10.5285 34.0076 9.30573C34.5536 8.6577 34.9861 8.13832 35.3055 7.74702C37.6088 4.93495 38.6074 3.138 38.3011 2.35546L38.1821 2.17259C38.1022 2.0625 37.8958 1.96179 37.5634 1.86993C37.2301 1.77828 36.8043 1.76312 36.2849 1.8242L30.5337 1.86068C30.4406 1.83037 30.3075 1.83319 30.1342 1.86993C29.9611 1.90667 29.8745 1.92511 29.8745 1.92511L29.7744 1.97104L29.695 2.02621C29.6284 2.06269 29.5551 2.12686 29.4752 2.21858C29.3957 2.30999 29.3292 2.41725 29.276 2.53949C28.6498 4.01881 27.9379 5.39421 27.139 6.66561C26.6463 7.42374 26.1939 8.08077 25.7808 8.63708C25.3682 9.1932 25.022 9.60293 24.7426 9.86558C24.4629 10.1285 24.2104 10.3391 23.9836 10.4982C23.7572 10.6574 23.5844 10.7246 23.4647 10.7C23.3447 10.6754 23.2318 10.651 23.1248 10.6266C22.9386 10.5165 22.7887 10.3668 22.6758 10.1773C22.5623 9.98781 22.4859 9.74932 22.446 9.46201C22.4063 9.17451 22.3828 8.92721 22.3761 8.7193C22.3698 8.51163 22.3727 8.2179 22.3862 7.83893C22.4 7.45977 22.4063 7.20323 22.4063 7.06873C22.4063 6.60408 22.4161 6.09979 22.4359 5.55575C22.4561 5.01171 22.4724 4.58065 22.486 4.26308C22.4996 3.9452 22.5059 3.60888 22.5059 3.25432C22.5059 2.89976 22.4824 2.6217 22.4359 2.41989C22.39 2.21833 22.3196 2.02268 22.2268 1.833C22.1334 1.64352 21.9967 1.49694 21.8174 1.39288C21.6377 1.28896 21.4143 1.20648 21.1484 1.14521C20.4428 0.998565 19.5442 0.919239 18.4523 0.906906C15.9762 0.882498 14.3851 1.02933 13.6795 1.34722C13.3999 1.48152 13.1469 1.66503 12.9207 1.89717C12.681 2.16624 12.6476 2.31307 12.8207 2.33722C13.6196 2.44712 14.1851 2.71002 14.518 3.12567L14.638 3.34592C14.7313 3.50483 14.8244 3.78616 14.9177 4.18954C15.0108 4.59291 15.0709 5.03913 15.0973 5.52794C15.1637 6.42057 15.1637 7.18467 15.0973 7.82031C15.0306 8.4562 14.9677 8.95124 14.9076 9.3058C14.8475 9.66036 14.7577 9.94767 14.638 10.1677C14.518 10.3877 14.4382 10.5222 14.3982 10.571C14.3583 10.6199 14.325 10.6506 14.2985 10.6627C14.1255 10.7236 13.9455 10.7546 13.7592 10.7546C13.5727 10.7546 13.3465 10.6689 13.0803 10.4977C12.8141 10.3264 12.5379 10.0912 12.2516 9.79165C11.9654 9.492 11.6425 9.07328 11.2829 8.5354C10.9236 7.99752 10.5508 7.36182 10.1647 6.62829L9.84526 6.09632C9.64556 5.7541 9.37278 5.25579 9.02662 4.60184C8.68025 3.94764 8.3741 3.31483 8.10796 2.70353C8.00157 2.4468 7.84175 2.25134 7.62877 2.11684L7.52882 2.06167C7.46237 2.01285 7.3557 1.96101 7.20938 1.90578C7.06284 1.8506 6.90994 1.81103 6.75005 1.78669L1.27832 1.82317C0.719175 1.82317 0.339793 1.9395 0.14003 2.17182L0.0600828 2.28172C0.0201442 2.34294 0 2.4407 0 2.57526C0 2.70977 0.0399386 2.87484 0.119886 3.0703C0.918658 4.79428 1.78731 6.45692 2.72583 8.05848C3.66435 9.66004 4.47991 10.9501 5.17202 11.9276C5.86426 12.9058 6.56987 13.829 7.28883 14.6968C8.0078 15.5649 8.48371 16.1212 8.71655 16.3656C8.94968 16.6104 9.1328 16.7935 9.2659 16.9157L9.76524 17.3558C10.0847 17.6493 10.5539 18.0007 11.173 18.4102C11.7922 18.8199 12.4778 19.2233 13.23 19.621C13.9823 20.018 14.8575 20.342 15.8561 20.5926C16.8546 20.8434 17.8264 20.944 18.7717 20.8955H21.0683C21.5341 20.8585 21.8869 20.724 22.1268 20.4919L22.2062 20.4C22.2597 20.327 22.3097 20.2136 22.3558 20.0611C22.4026 19.9083 22.4258 19.7399 22.4258 19.5568C22.4121 19.0312 22.4557 18.5575 22.5553 18.1357C22.6549 17.7141 22.7683 17.3962 22.8952 17.1822C23.022 16.9683 23.1651 16.7878 23.3244 16.6415C23.484 16.4948 23.5977 16.406 23.6644 16.3754C23.7308 16.3446 23.7837 16.3238 23.8236 16.3112C24.1431 16.2135 24.5192 16.3082 24.9523 16.5957C25.385 16.883 25.7909 17.2378 26.1706 17.6594C26.55 18.0814 27.0059 18.5549 27.5383 19.0805C28.0711 19.6063 28.537 19.9971 28.9362 20.2542L29.3354 20.4743C29.6021 20.6211 29.9482 20.7556 30.3743 20.8779C30.7997 21 31.1723 21.0306 31.4923 20.9695L36.6044 20.8963C37.1101 20.8963 37.5035 20.8194 37.7826 20.6669C38.0622 20.5141 38.2283 20.3457 38.2819 20.1626C38.3354 19.9793 38.3382 19.7713 38.2921 19.5388C38.2447 19.3068 38.198 19.1446 38.1516 19.053Z" fill="#2C3D52"/>
</svg>
