<svg width="30" height="30" viewBox="0 0 30 30" fill="none" xmlns="http://www.w3.org/2000/svg">
<g clip-path="url(#clip0)">
<path fill-rule="evenodd" clip-rule="evenodd" d="M15.0004 2.76621e-08C17.9672 2.76621e-08 20.8674 0.879761 23.3342 2.52803C25.801 4.1763 27.7237 6.51905 28.859 9.26002C29.9944 12.001 30.2914 15.0171 29.7127 17.9269C29.1339 20.8367 27.7052 23.5095 25.6074 25.6074C23.5095 27.7052 20.8367 29.1339 17.9269 29.7127C15.0171 30.2914 12.001 29.9944 9.26002 28.859C6.51905 27.7237 4.1763 25.801 2.52803 23.3342C0.879761 20.8674 2.76621e-08 17.9672 2.76621e-08 15.0004C-0.000119604 13.0305 0.387797 11.0799 1.1416 9.25988C1.8954 7.43989 3.00032 5.7862 4.39326 4.39326C5.7862 3.00032 7.43989 1.8954 9.25988 1.1416C11.0799 0.387797 13.0305 -0.000119604 15.0004 2.76621e-08V2.76621e-08Z" fill="#FB0D1C"/>
<path fill-rule="evenodd" clip-rule="evenodd" d="M15.5796 0.0119629C17.0054 0.065278 18.4164 0.322008 19.7696 0.774374L13.2021 6.45283L9.55859 5.20856L15.5704 0.0165173L15.5796 0.0119629ZM13.7979 29.9518C12.415 29.8432 11.0541 29.5421 9.75443 29.0574L16.7318 23.0291L20.3754 24.2725L13.8006 29.9537L13.7979 29.9518Z" fill="#CD0714"/>
<path fill-rule="evenodd" clip-rule="evenodd" d="M9.55859 17.1895L20.3699 20.8831V24.2661L9.55859 20.5725V17.1895Z" fill="white"/>
<path fill-rule="evenodd" clip-rule="evenodd" d="M9.55859 5.2085L20.3699 8.90213V12.2852L9.55859 8.59152V5.2085Z" fill="white"/>
<path fill-rule="evenodd" clip-rule="evenodd" d="M9.55859 17.1892L16.689 11.0271L20.3307 12.2714L13.1994 18.4326L9.55859 17.1892Z" fill="#C9C9C9"/>
</g>
<defs>
<clipPath id="clip0">
<rect width="30" height="30" fill="white"/>
</clipPath>
</defs>
</svg>
