<svg width="13" height="13" viewBox="0 0 13 13" fill="none" xmlns="http://www.w3.org/2000/svg">
<g clip-path="url(#clip0)">
<path d="M2.78673 5.49618C2.76311 5.29765 2.69269 5.11332 2.58651 4.95471L12.0979 1.779L11.5986 0.28355C11.5261 0.066232 11.291 -0.0510485 11.0738 0.0214377L0.727503 3.47589C0.510326 3.54838 0.392811 3.78341 0.465391 4.00073L0.710213 4.73388C0.465813 4.96081 0.3125 5.28453 0.3125 5.64359C0.3125 6.10859 0.569552 6.51446 0.948898 6.72723V12.5852C0.948898 12.8143 1.13478 13 1.36376 13H12.2715C12.5004 13 12.6863 12.8143 12.6863 12.5852V5.49618H2.78673ZM8.849 1.2522L10.1083 0.831765L9.80524 2.05658L8.54598 2.47702L8.849 1.2522ZM5.73781 2.29095L6.99716 1.87051L6.69414 3.09528L5.43489 3.51577L5.73781 2.29095ZM1.55409 6.27619C1.20539 6.27619 0.921628 5.99243 0.921628 5.64364C0.921628 5.29484 1.20539 5.01108 1.55409 5.01108C1.90289 5.01108 2.18664 5.29484 2.18664 5.64364C2.18664 5.99243 1.90289 6.27619 1.55409 6.27619ZM2.62676 3.3297L3.88611 2.90926L3.58309 4.13408L2.32375 4.55456L2.62676 3.3297ZM3.86385 6.89685H2.53624L3.21153 5.83106H4.53914L3.86385 6.89685ZM6.49144 5.83106H7.81906L7.14377 6.89685H5.81615L6.49144 5.83106ZM6.16556 10.9817V8.17039L8.40448 9.57607L6.16556 10.9817ZM10.4237 6.89685H9.09607L9.77136 5.83106H11.099L10.4237 6.89685Z" fill="#2C3D52"/>
</g>
<defs>
<clipPath id="clip0">
<rect width="13" height="13" fill="white"/>
</clipPath>
</defs>
</svg>
