<svg width="14" height="11" viewBox="0 0 14 11" fill="none" xmlns="http://www.w3.org/2000/svg">
<path d="M13.1947 2.0467C12.7142 2.2505 12.1987 2.38872 11.657 2.45043C12.2101 2.13338 12.6335 1.63049 12.8341 1.03311C12.3153 1.32672 11.7427 1.53992 11.1325 1.65549C10.6439 1.1565 9.94889 0.845703 9.17802 0.845703C7.69911 0.845703 6.49999 1.99361 6.49999 3.40858C6.49999 3.60926 6.52365 3.80526 6.56934 3.99269C4.34404 3.88569 2.3708 2.86508 1.05014 1.31422C0.819288 1.69218 0.687958 2.13258 0.687958 2.60269C0.687958 3.49213 1.16108 4.27693 1.87893 4.73607C1.44006 4.72202 1.0273 4.60645 0.665945 4.41435V4.44636C0.665945 5.68797 1.58935 6.72421 2.81375 6.96005C2.58942 7.01784 2.35287 7.04985 2.10814 7.04985C1.93522 7.04985 1.76799 7.03346 1.60403 7.00221C1.94499 8.02128 2.93367 8.76233 4.10506 8.78265C3.18899 9.46983 2.03392 9.87824 0.779337 9.87824C0.563176 9.87824 0.350258 9.86574 0.140625 9.8431C1.32588 10.5717 2.73301 10.9965 4.24537 10.9965C9.17154 10.9965 11.8643 7.09047 11.8643 3.70298L11.8553 3.37111C12.3814 3.01187 12.8366 2.56053 13.1947 2.0467Z" fill="#2C3D52"/>
</svg>
