<svg width="17" height="17" viewBox="0 0 17 17" fill="none" xmlns="http://www.w3.org/2000/svg">
<g clip-path="url(#clip0)">
<path d="M14.6631 6.19141C11.249 2.77734 5.69443 2.77734 2.28035 6.19141L0 8.47148L2.33693 10.8084C4.04382 12.5153 6.28598 13.369 8.52843 13.369C10.7709 13.369 13.0128 12.5156 14.7199 10.8084L17.0003 8.52805L14.6631 6.19141ZM14.3136 10.4024C11.1235 13.5922 5.93306 13.5922 2.74297 10.4024L0.812095 8.47148L2.6864 6.59717C5.87649 3.40738 11.0669 3.40738 14.257 6.59717L16.1879 8.52805L14.3136 10.4024Z" fill="#2C3D52"/>
<path d="M8.20447 6.19397C7.09603 6.19397 6.19434 7.09566 6.19434 8.2041C6.19434 8.36262 6.32298 8.49127 6.4815 8.49127C6.64001 8.49127 6.76866 8.36262 6.76866 8.2041C6.76866 7.4124 7.41277 6.76829 8.20447 6.76829C8.36298 6.76829 8.49163 6.63965 8.49163 6.48113C8.49163 6.32262 8.36327 6.19397 8.20447 6.19397Z" fill="#2C3D52"/>
<path d="M8.4919 4.7583C6.43352 4.7583 4.75879 6.43303 4.75879 8.49141C4.75879 10.5498 6.43352 12.2245 8.4919 12.2245C10.5503 12.2245 12.225 10.5498 12.225 8.49141C12.225 6.43303 10.5506 4.7583 8.4919 4.7583ZM8.4919 11.6502C6.75026 11.6502 5.33311 10.233 5.33311 8.49141C5.33311 6.74977 6.75026 5.33262 8.4919 5.33262C10.2335 5.33262 11.6507 6.74977 11.6507 8.49141C11.6507 10.233 10.2338 11.6502 8.4919 11.6502Z" fill="#2C3D52"/>
</g>
<defs>
<clipPath id="clip0">
<rect width="17" height="17" fill="white"/>
</clipPath>
</defs>
</svg>
