<svg width="24" height="24" viewBox="0 0 24 24" fill="none" xmlns="http://www.w3.org/2000/svg">
<path d="M12 0C5.38331 0 0 5.38331 0 12C0 18.6167 5.38331 24 12 24C18.6167 24 24 18.6167 24 12C24 5.38331 18.6167 0 12 0ZM12 23C5.93456 23 0.999984 18.0654 0.999984 12C0.999984 5.93456 5.93456 0.999984 12 0.999984C18.0654 0.999984 23 5.93456 23 12C23 18.0654 18.0654 23 12 23Z" fill="#959EA8"/>
<path d="M18.4383 14.0211C18.1674 13.9561 17.8997 14.1231 17.8363 14.3917C17.1917 17.105 14.7914 19.0001 11.9984 19.0001C9.20199 19.0001 6.80063 17.1021 6.15901 14.3853C6.09502 14.1158 5.82404 13.9522 5.55746 14.0132C5.2884 14.0767 5.1219 14.3462 5.18537 14.6148C5.93438 17.7857 8.73615 20 11.9984 20C15.2566 20 18.0574 17.7891 18.8089 14.6231C18.8729 14.3541 18.7069 14.0845 18.4383 14.0211Z" fill="#959EA8"/>
<path d="M7.99998 9.99997C8.55226 9.99997 8.99997 9.55226 8.99997 8.99998C8.99997 8.44771 8.55226 8 7.99998 8C7.44771 8 7 8.44771 7 8.99998C7 9.55226 7.44771 9.99997 7.99998 9.99997Z" fill="#959EA8"/>
<path d="M16 9.99997C16.5523 9.99997 17 9.55226 17 8.99998C17 8.44771 16.5523 8 16 8C15.4477 8 15 8.44771 15 8.99998C15 9.55226 15.4477 9.99997 16 9.99997Z" fill="#959EA8"/>
</svg>
