<svg width="12" height="12" viewBox="0 0 12 12" fill="none" xmlns="http://www.w3.org/2000/svg">
<path d="M9.563 4.07687C9.5218 4.07687 9.48062 4.07825 9.43962 4.08101C9.32558 2.34947 7.87514 0.972473 6.11782 0.972473C4.58077 0.972473 3.25665 2.01812 2.88878 3.4889C2.65007 3.3991 2.39866 3.35358 2.13841 3.35358C0.959299 3.35358 0 4.31288 0 5.49192C0 6.67114 0.959299 7.63043 2.13841 7.63043H9.563C10.5428 7.63043 11.3399 6.83327 11.3399 5.85356C11.3399 4.87385 10.5428 4.07687 9.563 4.07687ZM9.563 7.27606H2.13841C1.15473 7.27606 0.354371 6.47578 0.354371 5.49192C0.354371 4.50822 1.15473 3.70795 2.13841 3.70795C2.41943 3.70795 2.68797 3.77128 2.93671 3.89639C2.9868 3.92165 3.04555 3.92165 3.09546 3.89656C3.14547 3.87165 3.18069 3.82457 3.19063 3.76956C3.44654 2.35415 4.67759 1.32684 6.11782 1.32684C7.74771 1.32684 9.08204 2.65246 9.09243 4.28208C9.09278 4.33451 9.11631 4.384 9.1568 4.41738C9.1972 4.45096 9.25049 4.46428 9.30188 4.4551C9.38728 4.43919 9.47509 4.43124 9.563 4.43124C10.3473 4.43124 10.9855 5.06919 10.9855 5.85356C10.9855 6.63792 10.3473 7.27606 9.563 7.27606Z" fill="#48484C"/>
<path d="M3.60646 8.40416C3.51475 8.37042 3.41292 8.41853 3.3797 8.51075L2.9761 9.63044C2.94297 9.72249 2.99063 9.82407 3.08277 9.85711C3.1026 9.86438 3.12283 9.86767 3.14282 9.86767C3.21541 9.86767 3.28349 9.82285 3.30953 9.75052L3.71314 8.63083C3.74628 8.53878 3.6986 8.4372 3.60646 8.40416Z" fill="#48484C"/>
<path d="M4.25734 10.5365C4.16563 10.5029 4.0638 10.5508 4.03058 10.6431L3.62698 11.7628C3.59385 11.8548 3.64151 11.9564 3.73365 11.9894C3.75346 11.9967 3.77371 12 3.7937 12C3.86629 12 3.93436 11.9552 3.96041 11.8828L4.364 10.7632C4.39715 10.6711 4.34947 10.5695 4.25734 10.5365Z" fill="#48484C"/>
<path d="M5.88942 8.40416C5.79753 8.37042 5.69588 8.41853 5.66265 8.51075L5.25906 9.63044C5.22593 9.72249 5.27359 9.82407 5.36573 9.85711C5.38554 9.86438 5.40579 9.86767 5.42577 9.86767C5.49837 9.86767 5.56644 9.82285 5.59249 9.75052L5.99608 8.63083C6.02923 8.53878 5.98155 8.4372 5.88942 8.40416Z" fill="#48484C"/>
<path d="M6.5403 10.5365C6.44841 10.5029 6.34676 10.5508 6.31353 10.6431L5.90994 11.7628C5.87681 11.8548 5.92447 11.9564 6.01661 11.9894C6.03642 11.9967 6.05667 12 6.07666 12C6.14925 12 6.21732 11.9552 6.24337 11.8828L6.64696 10.7632C6.6801 10.6711 6.63243 10.5695 6.5403 10.5365Z" fill="#48484C"/>
<path d="M8.1719 8.40416C8.08018 8.37042 7.97836 8.41853 7.94513 8.51075L7.54154 9.63044C7.50839 9.72249 7.55607 9.82407 7.64821 9.85711C7.66802 9.86438 7.68827 9.86767 7.70825 9.86767C7.78083 9.86767 7.84892 9.82285 7.87497 9.75052L8.27856 8.63083C8.31169 8.53878 8.26403 8.4372 8.1719 8.40416Z" fill="#48484C"/>
</svg>
