<svg width="40" height="34" viewBox="0 0 40 34" fill="none" xmlns="http://www.w3.org/2000/svg">
<path d="M36.8007 7.33332H31.118L28.4513 0.666656H11.5487L8.882 7.33332H8V3.99999H4V7.33332H3.19933C1.43467 7.33332 0 8.76799 0 10.5327V30.1113C0 31.888 1.44533 33.3333 3.222 33.3333H36.778C38.5547 33.3333 40 31.888 40 30.1113V10.5327C40 8.76799 38.5653 7.33332 36.8007 7.33332ZM5.33333 5.33332H6.66667V7.33332H5.33333V5.33332ZM38.6667 30.1113C38.6667 31.1533 37.8193 32 36.778 32H3.222C2.18067 32 1.33333 31.1527 1.33333 30.1113V10.5327C1.33333 9.50399 2.17067 8.66666 3.19933 8.66666H4H8H9.78467L12.4513 1.99999H27.5487L30.2153 8.66666H36.8007C37.8293 8.66666 38.6667 9.50399 38.6667 10.5327V30.1113Z" fill="#9AA2AC"/>
<path d="M20 6.66666C13.3833 6.66666 8 12.05 8 18.6667C8 25.2833 13.3833 30.6667 20 30.6667C26.6167 30.6667 32 25.2833 32 18.6667C32 12.05 26.6167 6.66666 20 6.66666ZM20 29.3333C14.1187 29.3333 9.33333 24.548 9.33333 18.6667C9.33333 12.7853 14.1187 7.99999 20 7.99999C25.8813 7.99999 30.6667 12.7853 30.6667 18.6667C30.6667 24.548 25.8813 29.3333 20 29.3333Z" fill="#9AA2AC"/>
<path d="M20 10.6667C15.5887 10.6667 12 14.2553 12 18.6667C12 23.078 15.5887 26.6667 20 26.6667C24.4113 26.6667 28 23.078 28 18.6667C28 14.2553 24.4113 10.6667 20 10.6667ZM20 25.3333C16.324 25.3333 13.3333 22.3427 13.3333 18.6667C13.3333 14.9907 16.324 12 20 12C23.676 12 26.6667 14.9907 26.6667 18.6667C26.6667 22.3427 23.676 25.3333 20 25.3333Z" fill="#9AA2AC"/>
<path d="M34.6667 10C33.196 10 32 11.196 32 12.6667C32 14.1373 33.196 15.3333 34.6667 15.3333C36.1373 15.3333 37.3333 14.1373 37.3333 12.6667C37.3333 11.196 36.1373 10 34.6667 10ZM34.6667 14C33.9313 14 33.3333 13.402 33.3333 12.6667C33.3333 11.9313 33.9313 11.3333 34.6667 11.3333C35.402 11.3333 36 11.9313 36 12.6667C36 13.402 35.402 14 34.6667 14Z" fill="#9AA2AC"/>
</svg>
