<svg width="13" height="8" viewBox="0 0 13 8" fill="none" xmlns="http://www.w3.org/2000/svg">
<path d="M7.91945 0.51751L6.85092 1.91743L7.53495 0.283835C7.55194 0.198862 7.61992 0.150003 7.66878 0.150003C7.68577 0.150003 7.70064 0.166998 7.73463 0.181868L7.83447 0.230727L7.93432 0.279586C8.02141 0.334819 8.00442 0.415542 7.91945 0.51751ZM6.47066 2.05127L6.77019 -0.300352C6.80206 -0.466048 6.7532 -0.582886 6.63636 -0.582886H6.48553C6.45367 -0.582886 6.30284 -0.582886 6.30284 -0.582886C6.18601 -0.582886 6.13715 -0.483043 6.16901 -0.300352L6.47066 2.05127ZM6.88703 4.60044C6.98687 4.83412 7.02086 4.98497 7.02086 5.1995V7.14962V7.41731C7.02086 7.50228 6.95501 7.583 6.85517 7.583H5.98844C5.8886 7.583 5.82275 7.51713 5.82275 7.41731V7.14962V6.86709H1.20236V7.14962V7.41731C1.20236 7.50228 1.13651 7.583 1.03667 7.583H0.165697C0.0658538 7.583 0 7.51713 0 7.41731V7.14962V5.1995C0 4.9807 0.0318647 4.815 0.133832 4.60044L1.21723 2.3338C1.33407 2.06614 1.66759 1.85158 1.96712 1.85158H5.03463C5.33416 1.85158 5.6698 2.07038 5.80363 2.3338L6.88703 4.60044ZM0.966563 4.50273H6.03305L5.30017 2.9371C5.14934 2.63758 5.01763 2.5696 4.70111 2.5696H2.30063C2.25177 2.5696 2.21566 2.5696 2.1838 2.5696C1.95012 2.60146 1.83328 2.68644 1.71857 2.9371L0.966563 4.50273ZM1.66759 5.63499C1.66759 5.33546 1.41692 5.10178 1.11739 5.10178C0.817861 5.10178 0.584187 5.33546 0.584187 5.63499C0.584187 5.93451 0.817861 6.18518 1.11739 6.18518C1.41692 6.18518 1.66759 5.93664 1.66759 5.63499ZM6.43455 5.63499C6.43455 5.33546 6.18388 5.10178 5.88435 5.10178C5.58482 5.10178 5.35115 5.33546 5.35115 5.63499C5.35115 5.93451 5.58482 6.18518 5.88435 6.18518C6.18388 6.18731 6.43455 5.93664 6.43455 5.63499ZM6.10316 2.06614L5.41913 0.432537C5.38726 0.347564 5.33416 0.298705 5.2853 0.298705C5.2683 0.298705 5.25343 0.298705 5.23644 0.298705C5.21944 0.298705 5.21944 0.3157 5.20457 0.3157L5.10473 0.364559L5.01976 0.430413C4.93478 0.479272 4.9539 0.564245 5.03675 0.664088L6.10316 2.06614ZM12.9519 5.26748L12.4506 7.15175L12.3847 7.40242C12.3677 7.48739 12.2679 7.53625 12.1851 7.51925L11.3523 7.30045C11.2674 7.28343 11.2185 7.18361 11.2355 7.10076L11.3014 6.85009L11.3863 6.58241L7.26728 5.48201V5.16551C7.26728 5.03166 7.25029 4.88296 7.21842 4.74913C7.43723 4.73213 7.63481 4.58343 7.70064 4.34765C7.78561 4.0651 7.6008 3.76559 7.31614 3.68061C7.13343 3.64875 6.94861 3.69761 6.81478 3.81445L6.43028 3.01358C6.44728 2.99659 6.46215 2.96472 6.47914 2.94773L8.11274 1.04646C8.26356 0.863773 8.51421 0.76393 8.74789 0.746936C8.83286 0.746936 8.89874 0.746936 8.96669 0.76393L11.8855 1.51381C12.185 1.59879 12.4527 1.89831 12.5016 2.18085L12.9668 4.6493C13.0199 4.89997 13.0051 5.06992 12.9519 5.26748ZM12.2361 4.40288L11.9195 2.70343C11.8537 2.37204 11.7368 2.27007 11.4373 2.1851L9.11968 1.54993C9.00285 1.51806 8.92002 1.51806 8.83715 1.51806C8.70332 1.53506 8.58648 1.61791 8.45265 1.76873L7.31827 3.08368L12.2361 4.40288ZM11.9195 4.93609C11.8877 4.91909 11.8537 4.91909 11.8197 4.91909C11.7857 4.91909 11.7538 4.91909 11.7199 4.91909C11.5011 4.93609 11.3184 5.08479 11.2695 5.32059C11.1845 5.60312 11.3545 5.90263 11.637 5.9876C11.9196 6.07257 12.2191 5.88778 12.3041 5.6031C12.3848 5.31634 12.2042 5.01681 11.9195 4.93609Z" fill="black"/>
</svg>
