<svg width="14" height="14" viewBox="0 0 14 14" fill="none" xmlns="http://www.w3.org/2000/svg">
<path d="M7 0C3.1402 0 0 3.1402 0 7C0 10.8598 3.1402 14 7 14C10.8598 14 14 10.8598 14 7C14 3.1402 10.8598 0 7 0ZM7 12.5105C3.96153 12.5105 1.48934 10.0386 1.48934 7C1.48934 3.96138 3.96153 1.48948 7 1.48948C10.0385 1.48948 12.5107 3.96138 12.5107 7C12.5107 10.0386 10.0385 12.5105 7 12.5105Z" fill="grey"/>
<path d="M10.6481 6.7839H7.50229V3.00148C7.50229 2.68318 7.24422 2.42511 6.92592 2.42511C6.60762 2.42511 6.34955 2.68318 6.34955 3.00148V7.36027C6.34955 7.67857 6.60762 7.93664 6.92592 7.93664H10.6481C10.9664 7.93664 11.2245 7.67857 11.2245 7.36027C11.2245 7.04197 10.9664 6.7839 10.6481 6.7839Z" fill="grey"/>
</svg>
