<svg width="195" height="40" viewBox="0 0 195 40" fill="none" xmlns="http://www.w3.org/2000/svg">
<path d="M57.4445 0.699021H58.0006V36.3929H57.4382C57.4382 24.4943 57.4382 12.5949 57.4382 0.694824L57.4445 0.699021ZM14.2199 1.64535C17.766 1.64535 21.3163 1.56771 24.8582 1.77124C27.3341 1.92022 29.8731 2.79311 31.5727 4.66688C33.2513 6.38537 33.9962 8.80679 34.1431 11.1611C34.3529 15.0828 34.2543 19.0107 34.2669 22.9366C34.1997 25.2447 34.2795 27.6389 33.4695 29.8463C33.0451 31.0614 32.3569 32.1674 31.4542 33.0849C30.5516 34.0024 29.457 34.7086 28.249 35.1528C26.1066 35.9754 23.7524 35.9166 21.4904 35.9733C17.5037 35.9586 13.5023 36.0803 9.51761 35.8348C6.77306 35.6648 4.01172 34.4709 2.36246 32.2069C0.507581 29.8169 0.339718 26.6842 0.314539 23.7759C0.314539 19.508 0.194937 15.2359 0.438338 10.9764C0.602004 7.97377 2.00576 4.94385 4.60973 3.31558C7.4571 1.47539 10.9822 1.71459 14.222 1.64535H14.2199ZM12.5307 4.76759C10.1702 4.83054 7.49487 4.76759 5.60641 6.44622C3.81657 7.94439 3.44518 10.4393 3.42839 12.655C3.33607 16.7803 3.33607 20.9069 3.42839 25.0349C3.46406 27.1038 3.76622 29.3993 5.31685 30.9101C6.7185 32.3789 8.83567 32.744 10.7724 32.7986C14.7591 32.9266 18.7459 32.8867 22.7326 32.8384C24.9106 32.7944 27.3593 32.6853 29.0442 31.1073C30.6389 29.7057 31.0733 27.4815 31.1215 25.4546C31.2495 21.3986 31.2076 17.3405 31.1614 13.2845C31.1173 11.1128 31.0166 8.68719 29.4828 6.97499C28.1462 5.37819 25.9703 4.8767 23.979 4.83264C20.1601 4.68996 16.337 4.75081 12.5161 4.76759H12.5307ZM82.9953 5.72231C83.8619 5.19774 84.9446 5.44324 85.7986 5.86709C86.2183 6.07692 86.6547 6.4651 86.5624 6.99597C86.6183 12.6613 86.6079 18.3267 86.5309 23.9921C86.5141 26.019 86.17 28.2075 84.7767 29.7749C84.1683 30.3855 83.4024 31.0339 82.4833 30.9479C82.4435 30.0225 82.9156 29.1832 83.0331 28.2768C83.3499 26.2624 83.2429 24.2145 83.2849 22.1917C83.3087 17.9658 83.3289 13.7399 83.3457 9.51391C83.3729 8.81373 83.3498 8.11249 83.2765 7.41563C81.7112 8.61165 80.8718 10.5274 80.406 12.4158C80.0283 14.1952 79.9381 16.2158 80.9558 17.8105C81.1446 18.1609 81.472 18.5428 81.2286 18.9562C80.7774 19.166 80.2801 18.8953 79.871 18.6981C78.9723 18.2011 78.2524 17.4346 77.8127 16.5066C77.373 15.5786 77.2357 14.536 77.4202 13.5258C78.0266 10.2945 80.0787 7.28973 82.9953 5.72861V5.72231ZM115.466 6.12099C115.464 6.01681 115.486 5.91353 115.53 5.81904C115.574 5.72455 115.639 5.64133 115.72 5.57575C115.801 5.51017 115.895 5.46395 115.997 5.44062C116.099 5.41729 116.204 5.41747 116.306 5.44114C117.195 5.57963 118.127 5.76638 118.865 6.31613C118.794 7.64224 118.744 8.97046 118.691 10.3029C120.16 10.4728 121.694 10.3217 123.131 10.6743C123.238 10.9915 123.255 11.3321 123.181 11.6585C123.107 11.9849 122.945 12.2847 122.712 12.5249C121.36 12.6613 119.996 12.5711 118.641 12.632C118.49 15.857 118.381 19.0863 118.391 22.3155C118.45 23.4276 118.481 24.6425 119.126 25.5994C119.51 26.1764 120.265 25.8092 120.641 25.4084C121.565 24.4433 122.177 23.2222 122.397 21.9043C122.508 19.4787 122.718 16.881 124.185 14.8456C124.936 13.6916 126.241 12.7977 127.666 12.9425C128.801 12.9761 129.764 13.7105 130.404 14.6043C130.293 14.0735 130.561 13.3601 131.212 13.4356C131.994 13.5069 133.088 13.5699 133.493 14.3567C133.474 17.2943 133.256 20.2319 133.396 23.1695C133.47 24.0823 133.499 25.058 133.979 25.87C134.059 26.0001 134.167 26.1103 134.296 26.1922C134.425 26.2741 134.57 26.3257 134.722 26.3429C134.873 26.3601 135.027 26.3425 135.17 26.2914C135.314 26.2404 135.444 26.1573 135.551 26.0484C136.25 25.2888 136.722 24.204 136.476 23.1653C136.214 20.2592 136.544 17.1202 138.249 14.6694C139.011 13.5447 140.348 12.7579 141.743 12.9551C142.83 13.0306 143.743 13.7587 144.351 14.6232C144.32 14.1889 144.341 13.6035 144.867 13.486C145.706 13.3781 146.555 13.5699 147.266 14.0273L147.427 14.3379C147.362 17.6951 147.325 21.0524 147.337 24.397C148.925 22.1057 150.197 19.571 150.841 16.8432C149.484 15.9305 149.696 13.7566 150.973 12.8817C151.664 12.4746 152.713 12.3991 153.282 13.0453C153.722 13.5846 153.554 14.3211 153.491 14.9527C154.75 14.8016 155.984 14.363 157.268 14.3567C158.213 14.3567 158.859 15.3723 158.617 16.2452C158.019 19.0632 157.254 22.0239 158.059 24.8817C158.269 25.5574 158.724 26.4513 159.57 26.3358C160.521 26.126 160.911 25.0601 161.075 24.2124C160.655 21.6357 160.726 18.91 161.681 16.4487C162.31 14.959 163.334 13.3643 165.038 12.995C166.486 12.6404 167.991 13.3789 168.782 14.6002C168.744 14.1385 168.8 13.4566 169.411 13.4356C170.25 13.4566 171.417 13.5195 171.868 14.3421C171.849 17.4202 171.608 20.5026 171.79 23.5745C171.87 24.3551 171.898 25.1923 172.311 25.8826C172.634 26.4513 173.484 26.468 173.885 25.977C174.724 25.0265 175.162 23.755 175.328 22.5149C175.372 19.6507 175.355 16.7866 175.423 13.9245C175.395 13.5972 175.523 13.2279 175.905 13.2027C176.597 13.2386 177.281 13.3714 177.936 13.5972C178.084 13.6513 178.209 13.7537 178.291 13.8877C178.374 14.0218 178.408 14.1796 178.39 14.3358C178.39 16.0144 178.39 17.7056 178.39 19.3926C178.988 17.6741 179.468 15.9095 180.217 14.2476C180.45 13.7755 180.748 13.1544 181.375 13.1985C182.519 13.1859 184.007 13.828 184.051 15.1457C184.122 17.3426 184.116 19.5521 184.41 21.7301C184.807 19.2609 185.48 16.844 186.416 14.5246C186.625 13.9539 186.925 13.2216 187.643 13.2048C188.568 13.2641 189.456 13.5963 190.192 14.1595C190.644 14.4889 190.73 15.0786 190.673 15.5968C190.53 18.0423 190.513 20.4936 190.623 22.9408C190.711 23.9501 190.832 25.0391 191.462 25.8784C191.537 25.9781 191.633 26.0598 191.743 26.1177C191.854 26.1755 191.976 26.208 192.1 26.2129C192.225 26.2177 192.349 26.1947 192.464 26.1456C192.578 26.0964 192.68 26.0224 192.763 25.9288C193.493 25.0601 193.453 23.8431 193.917 22.8548C194.242 22.326 194.897 22.8548 194.821 23.3374C194.773 24.781 194.431 26.3338 193.447 27.4437C192.509 28.4929 190.816 28.4194 189.764 27.5885C188.753 26.8289 188.27 25.5784 188.05 24.374C187.63 21.8413 187.735 19.2667 187.767 16.7131C186.269 19.7661 185.536 23.1674 185.423 26.5541C185.408 26.8248 185.092 26.9381 184.88 27.0136C184.181 27.1626 183.348 27.087 182.848 26.5247C182.429 26.1197 182.261 25.5574 182.152 25.0076C181.613 22.3302 181.589 19.5878 181.401 16.8747C180.452 18.0329 180.085 19.5374 179.657 20.9433C179.04 22.9555 179.063 25.079 178.983 27.1626C178.983 27.5319 178.923 28.0837 178.45 28.1299C177.508 28.2956 176.405 28.3082 175.624 27.685C175.414 27.1059 175.462 26.4722 175.414 25.8658C174.961 26.8961 174.241 28.0292 173.022 28.1739C171.216 28.495 169.566 26.9674 169.344 25.2364C168.542 26.8709 166.92 28.2432 165.026 28.2159C163.574 28.2369 162.298 27.2318 161.7 25.9624C161.148 27.1122 160.099 28.2033 158.741 28.2117C156.979 28.1844 155.556 26.7114 155.115 25.0832C154.343 22.3554 154.83 19.4766 155.411 16.7614C154.612 16.7404 153.817 16.8033 153.021 16.8096C151.786 20.4441 149.874 23.8123 147.387 26.7366C147.408 29.6742 147.706 32.7104 146.758 35.5494C146.225 37.3183 144.676 38.8206 142.813 39.0661C141.514 39.2109 140.109 38.8269 139.168 37.8932C138.136 36.8441 138.04 35.1654 138.606 33.8624C139.198 32.5216 140.247 31.4599 141.273 30.4422C142.339 29.393 143.487 28.4069 144.553 27.3493C144.584 26.8693 144.584 26.3878 144.553 25.9078C143.596 27.3766 141.84 28.4866 140.033 28.1614C138.747 27.9515 137.756 26.9548 137.211 25.8218C136.697 26.959 135.767 28.0837 134.437 28.1844C132.706 28.4173 131.155 26.9255 130.996 25.2468C130.421 26.3337 129.575 27.322 128.434 27.8298C127.244 28.3901 125.775 28.3628 124.697 27.5948C123.618 26.8268 123.049 25.5721 122.72 24.3341C122.231 25.6623 121.486 26.9653 120.307 27.79C119.184 28.5936 117.546 28.1865 116.687 27.1794C115.622 25.9414 115.33 24.2565 115.164 22.6806C114.384 24.5103 113.297 26.3317 111.553 27.3829C109.721 28.4992 107.392 28.4698 105.42 27.769C104.937 27.5466 104.289 27.3116 104.19 26.7198C104.23 26.3189 104.361 25.9323 104.571 25.5889C104.782 25.2455 105.068 24.9543 105.407 24.737C105.967 24.6006 106.37 25.1021 106.8 25.3664C107.384 25.7987 108.202 26.1869 108.899 25.7861C109.818 25.2007 109.91 23.8809 109.528 22.9471C108.938 21.514 107.614 20.6012 106.542 19.55C105.539 21.2454 104.549 22.9471 103.533 24.6362C102.73 25.8952 101.817 27.1542 100.497 27.9075C99.727 28.3565 98.5877 28.3691 97.998 27.6221C97.3874 26.8227 97.272 25.7756 97.1587 24.8062C96.9174 21.7637 97.3497 18.7212 97.2972 15.6745C96.2355 16.6124 95.5598 17.8861 94.9304 19.1303C93.6675 21.8816 92.819 24.8048 92.4124 27.8046C92.3642 28.176 91.8585 28.176 91.5731 28.2243C90.9541 28.2243 90.1526 28.2621 89.7875 27.6515C89.2923 26.8017 89.4098 25.763 89.3678 24.8293C89.3783 21.1909 89.414 17.5524 89.4307 13.9182C89.4014 13.6161 89.4874 13.1838 89.8861 13.2111C90.729 13.1873 91.5562 13.4433 92.2383 13.9392C92.3642 16.3124 92.2257 18.7044 92.2571 21.0859C93.0965 18.7778 93.7553 16.304 95.3899 14.405C96.1264 13.5321 97.4021 12.8376 98.5226 13.4146C99.3514 13.8133 100.466 14.3211 100.457 15.3996C100.398 18.1274 100.187 20.8551 100.298 23.5829C100.34 24.1222 100.359 24.6971 100.642 25.1755C101.175 25.4315 101.578 24.802 101.884 24.4558C103.216 22.5464 104.289 20.469 105.378 18.4127C104.958 17.8441 104.538 17.1999 104.549 16.4571C104.505 14.5204 106.326 12.6026 108.326 12.9803C108.488 12.9941 108.646 13.0408 108.789 13.1178C108.933 13.1947 109.059 13.3002 109.161 13.4277C109.262 13.5552 109.336 13.7021 109.379 13.8593C109.422 14.0165 109.432 14.1808 109.409 14.3421C109.274 15.5696 108.538 16.6355 107.797 17.586C109.056 18.5764 110.411 19.4472 111.542 20.5824C112.014 21.0661 112.362 21.6572 112.555 22.3049C112.748 22.9525 112.781 23.6374 112.65 24.3005C113.867 23.094 114.814 21.5392 115.053 19.8228C115.099 17.393 115.078 14.9611 115.116 12.5333C113.976 12.4872 112.835 12.4956 111.698 12.4221C111.314 12.2543 111.421 11.7255 111.452 11.394C111.555 10.9282 111.643 10.3448 112.082 10.0721C113.146 10.0721 114.209 10.1497 115.273 10.1686C115.321 8.81728 115.315 7.46179 115.449 6.11469L115.466 6.12099ZM127.552 15.5255C126.535 16.0899 126.153 17.2964 125.914 18.3624C125.534 20.1831 125.505 22.0596 125.828 23.8913C126.023 24.7307 126.312 25.7253 127.145 26.1512C127.93 26.4932 128.723 25.8847 129.155 25.2678C130.07 23.9123 130.307 22.2274 130.4 20.6285C130.44 19.1597 130.479 17.5923 129.77 16.2662C129.573 15.8765 129.23 15.5804 128.815 15.4417C128.401 15.3031 127.949 15.3332 127.557 15.5255H127.552ZM141.953 15.4206C140.753 15.7983 140.255 17.1139 139.949 18.2176C139.471 20.2445 139.378 22.4142 139.905 24.4348C140.115 25.2238 140.587 26.1932 141.516 26.2624C142.486 26.233 143.147 25.3518 143.51 24.5397C144.299 22.6513 144.441 20.5677 144.334 18.547C144.259 17.6636 144.156 16.7236 143.629 15.9808C143.442 15.725 143.18 15.5337 142.879 15.4333C142.579 15.3329 142.254 15.3285 141.951 15.4206H141.953ZM165.943 15.5087C164.893 16.048 164.509 17.2734 164.277 18.3477C163.939 20.3096 163.844 22.3554 164.291 24.3089C164.501 25.1105 164.921 26.1008 165.846 26.2519C166.725 26.3149 167.39 25.5679 167.774 24.8629C168.708 23.0541 168.834 20.96 168.754 18.9604C168.679 17.9469 168.561 16.8621 167.951 16.0228C167.727 15.7187 167.404 15.5021 167.037 15.4102C166.671 15.3183 166.284 15.3568 165.943 15.5192V15.5087ZM141.065 34.0387C140.646 34.9262 140.257 36.0299 140.759 36.9658C141.153 37.7002 142.156 37.8911 142.868 37.5218C143.592 37.2259 143.95 36.4727 144.158 35.7613C144.748 33.7491 144.685 31.6298 144.708 29.5567C143.357 30.9248 141.968 32.3202 141.065 34.0387ZM25.5527 7.74086C26.9606 7.05892 28.7001 8.44379 28.3791 9.96084C28.2301 11.4296 26.3123 12.2543 25.154 11.3184C23.8804 10.4644 24.1196 8.29061 25.5527 7.75135V7.74086ZM15.9384 10.0909C17.149 9.9012 18.3861 9.96988 19.5684 10.2925C20.7506 10.6151 21.8511 11.1842 22.7976 11.9626C23.7498 12.7514 24.5271 13.73 25.0798 14.836C25.6325 15.942 25.9486 17.1511 26.0078 18.3861C26.0671 19.6211 25.8682 20.8549 25.4238 22.0088C24.9795 23.1626 24.2994 24.2111 23.4271 25.0874C22.5328 25.9825 21.4537 26.6713 20.2652 27.1055C19.0768 27.5397 17.8077 27.7089 16.547 27.6012C15.2863 27.4934 14.0644 27.1114 12.9669 26.4818C11.8693 25.8522 10.9227 24.9903 10.1933 23.9564C9.4145 22.8521 8.89656 21.5854 8.67848 20.2519C8.4604 18.9183 8.54787 17.5526 8.93429 16.2578C9.84075 13.0852 12.6755 10.561 15.9489 10.0846L15.9384 10.0909ZM16.1335 13.2174C13.2756 13.7629 11.2088 16.7509 11.6914 19.6192C12.0356 22.6366 15.1116 25.0055 18.1332 24.46C21.1841 24.0739 23.4544 20.8929 22.8753 17.8798C22.4556 14.7974 19.1907 12.4872 16.144 13.2174H16.1335Z" fill="white"/>
</svg>
