<svg width="14" height="14" viewBox="0 0 14 14" fill="none" xmlns="http://www.w3.org/2000/svg">
<path d="M1.90339 12.889C1.90339 12.889 1.89096 13.202 2.19665 13.202C2.57697 13.202 5.72567 13.1978 5.72567 13.1978L5.73085 10.3061C5.73085 10.3061 5.68111 9.82944 6.14381 9.82944H7.60805C8.1552 9.82944 8.12153 10.3061 8.12153 10.3061L8.11531 13.1885C8.11531 13.1885 11.1008 13.1885 11.5697 13.1885C11.9578 13.1885 11.9402 12.7989 11.9402 12.7989V7.46778L7.07178 3.13721L1.90339 7.46778V12.889Z" fill="#2C3D52"/>
<path d="M0 7.06469C0 7.06469 0.43886 7.8735 1.39585 7.06469L7.11503 2.22635L12.4772 7.03464C13.585 7.8336 14 7.03464 14 7.03464L7.11503 0.797852L0 7.06469Z" fill="#2C3D52"/>
<path d="M12.347 2.21484H10.9678L10.9735 3.88738L12.347 5.05267V2.21484Z" fill="#2C3D52"/>
</svg>
