<svg width="14" height="14" viewBox="0 0 14 14" fill="none" xmlns="http://www.w3.org/2000/svg">
<path d="M8.0276 6.31519C7.64998 6.31519 7.34277 6.62239 7.34277 7.00001C7.34277 7.37763 7.64998 7.68483 8.0276 7.68483C8.40522 7.68483 8.71242 7.37763 8.71242 7.00001C8.71242 6.62239 8.40522 6.31519 8.0276 6.31519Z" fill="#2C3D52"/>
<path d="M8.48145 4.23926V5.47419C8.83314 5.57891 9.1342 5.80201 9.33821 6.0973L10.5128 5.71563C10.1133 4.94585 9.36659 4.38415 8.48145 4.23926Z" fill="#2C3D52"/>
<path d="M10.7936 6.57812L9.61865 6.9599C9.61898 6.97324 9.61969 6.9865 9.61969 6.9999C9.61969 7.36349 9.49691 7.69876 9.29102 7.96708L10.0164 8.96551C10.5163 8.45987 10.8254 7.76534 10.8254 6.9999C10.8254 6.85657 10.8145 6.71572 10.7936 6.57812Z" fill="#2C3D52"/>
<path d="M8.02814 1.02808H2.50986C2.25936 1.02808 2.05628 1.23116 2.05628 1.48166C2.05628 1.73215 2.25936 1.93523 2.50986 1.93523H4.86761C4.37017 2.24676 3.92165 2.62936 3.53651 3.06891H0.453579C0.203082 3.06894 0 3.27205 0 3.52254C0 3.77304 0.203082 3.97612 0.453579 3.97612H2.88034C2.35704 4.86359 2.05625 5.89724 2.05625 6.99993C2.05625 8.28301 2.4631 9.47285 3.15441 10.4474H1.86744C1.61695 10.4474 1.41387 10.6504 1.41387 10.9009C1.41387 11.1514 1.61695 11.3545 1.86744 11.3545H3.94609C4.22891 11.6198 4.53749 11.8579 4.86761 12.0646H0.500364C0.249868 12.0646 0.0467852 12.2677 0.0467852 12.5182C0.0467852 12.7687 0.249868 12.9718 0.500364 12.9718H8.02814C11.3211 12.9718 14 10.2928 14 6.99991C14 3.70703 11.321 1.02808 8.02814 1.02808ZM10.2315 9.97658C10.2231 9.98363 10.2148 9.99074 10.2058 9.99722C10.1957 10.0046 10.1853 10.0114 10.1749 10.0178C9.56883 10.4502 8.82767 10.7048 8.02814 10.7048C7.22861 10.7048 6.48748 10.4502 5.88141 10.0178C5.87091 10.0114 5.86057 10.0046 5.85045 9.99722C5.84148 9.99069 5.8332 9.98358 5.82483 9.97658C4.91442 9.30091 4.32325 8.21821 4.32325 6.99993C4.32325 4.95705 5.98526 3.29504 8.02814 3.29504C10.071 3.29504 11.733 4.95705 11.733 6.99993C11.733 8.21824 11.1419 9.30091 10.2315 9.97658Z" fill="#2C3D52"/>
<path d="M5.54297 5.71563L6.71752 6.0973C6.92159 5.80204 7.22262 5.57894 7.57432 5.47419V4.23926C6.6892 4.38418 5.94246 4.94585 5.54297 5.71563Z" fill="#2C3D52"/>
<path d="M8.55785 8.50098C8.39198 8.55971 8.21373 8.592 8.02795 8.592C7.84223 8.592 7.66392 8.55971 7.49806 8.50098L6.77246 9.49963C7.15024 9.69013 7.57675 9.79765 8.02795 9.79765C8.47915 9.79765 8.90566 9.69016 9.28344 9.49963L8.55785 8.50098Z" fill="#2C3D52"/>
<path d="M6.43619 6.9999C6.43619 6.9865 6.43685 6.97324 6.43718 6.9599L5.26224 6.57812C5.24135 6.71572 5.23047 6.85657 5.23047 6.9999C5.23047 7.76536 5.53959 8.4599 6.03941 8.96556L6.76484 7.96708C6.55897 7.69878 6.43619 7.36349 6.43619 6.9999Z" fill="#2C3D52"/>
</svg>
