<svg width="31" height="31" viewBox="0 0 31 31" fill="none" xmlns="http://www.w3.org/2000/svg">
<path d="M23.8447 8.34613C23.1877 8.34613 22.6523 7.81079 22.6523 7.15383V4.76921C22.6523 4.11225 23.1877 3.5769 23.8447 3.5769H26.2293C26.8862 3.5769 27.4216 4.11225 27.4216 4.76921V7.15383C27.4216 7.81079 26.8862 8.34613 26.2293 8.34613H23.8447Z" fill="#2C3D52"/>
<path d="M15.4982 10.9548C14.6326 10.9548 13.8337 11.2088 13.1458 11.6261C13.3604 11.5593 13.5834 11.5152 13.8182 11.5152C15.0916 11.5152 16.123 12.5466 16.123 13.8211C16.123 15.0921 15.0916 16.1259 13.8182 16.1259C12.5449 16.1259 11.5135 15.0933 11.5135 13.8211C11.5135 13.5839 11.56 13.3609 11.6256 13.1475C11.2059 13.8354 10.9531 14.6343 10.9531 15.4999C10.9531 18.0121 12.986 20.0462 15.4994 20.0462C18.0092 20.0462 20.0457 18.0133 20.0457 15.4999C20.0457 12.9865 18.008 10.9548 15.4982 10.9548Z" fill="#2C3D52"/>
<path d="M15.4994 8.34604C19.4495 8.34604 22.6532 11.5486 22.6532 15.4999C22.6532 19.4512 19.4483 22.6537 15.4994 22.6537C11.5493 22.6537 8.34555 19.4512 8.34555 15.4999C8.34555 11.5486 11.5493 8.34604 15.4994 8.34604ZM15.4994 5.96143C10.2401 5.96143 5.96094 10.2406 5.96094 15.4999C5.96094 20.7592 10.2401 25.0383 15.4994 25.0383C20.7587 25.0383 25.0379 20.7592 25.0379 15.4999C25.0379 10.2406 20.7587 5.96143 15.4994 5.96143Z" fill="#2C3D52"/>
<path d="M25.1875 0H5.8125C2.60162 0 0 2.60162 0 5.8125V25.1875C0 28.3984 2.60162 31 5.8125 31H25.1875C28.3984 31 31 28.3984 31 25.1875V5.8125C31 2.60162 28.3984 0 25.1875 0ZM28.6154 10.7308H20.8213C21.9575 11.9982 22.6538 13.665 22.6538 15.5C22.6538 19.4513 19.4489 22.6538 15.5 22.6538C11.5499 22.6538 8.34615 19.4513 8.34615 15.5C8.34615 13.665 9.04246 11.997 10.1787 10.7308H2.38462V5.8125C2.38462 3.92269 3.92269 2.38462 5.8125 2.38462H25.1875C27.0785 2.38462 28.6154 3.92269 28.6154 5.8125V10.7308Z" fill="#2C3D52"/>
</svg>
