<svg width="12" height="12" viewBox="0 0 12 12" fill="none" xmlns="http://www.w3.org/2000/svg">
<path d="M11.8729 4.19863L8.44425 0.770087C8.35942 0.685252 8.25901 0.642822 8.14293 0.642822C8.02686 0.642822 7.92637 0.685252 7.84161 0.770087C7.75677 0.854969 7.7143 0.955425 7.7143 1.07148V2.78575H6.2143C3.03114 2.78575 1.07812 3.68533 0.354798 5.48444C0.118258 6.08257 0 6.82597 0 7.71436C0 8.45538 0.283496 9.46205 0.850441 10.7344C0.863811 10.7657 0.887171 10.8192 0.920712 10.8951C0.954228 10.9709 0.984321 11.0378 1.01111 11.0959C1.03798 11.1539 1.06702 11.203 1.09824 11.2431C1.15176 11.3191 1.21429 11.3571 1.28574 11.3571C1.3527 11.3571 1.40517 11.3348 1.44314 11.2902C1.48102 11.2456 1.49999 11.1897 1.49999 11.1229C1.49999 11.0826 1.49441 11.0235 1.48322 10.9454C1.47206 10.8672 1.46645 10.8149 1.46645 10.788C1.4441 10.4846 1.43294 10.2098 1.43294 9.96445C1.43294 9.51358 1.47206 9.10955 1.55012 8.75243C1.62829 8.39524 1.73653 8.08616 1.87496 7.82497C2.01337 7.56368 2.19188 7.3384 2.41069 7.14866C2.6294 6.95891 2.86487 6.80383 3.1171 6.68327C3.36937 6.56269 3.66624 6.46782 4.00776 6.39865C4.34926 6.32946 4.69299 6.28145 5.03902 6.25464C5.38504 6.22783 5.77678 6.21451 6.2143 6.21451H7.7143V7.92883C7.7143 8.04488 7.75668 8.14536 7.84145 8.23015C7.92635 8.31489 8.02676 8.35736 8.14277 8.35736C8.25882 8.35736 8.3593 8.31489 8.44425 8.23015L11.8728 4.80148C11.9576 4.71665 12 4.61624 12 4.50016C12 4.38411 11.9576 4.28363 11.8729 4.19863Z" fill="#2C3D52"/>
</svg>
