<svg width="5" height="8" viewBox="0 0 5 8" fill="none" xmlns="http://www.w3.org/2000/svg">
<path d="M2.20626 7.53878C2.41449 7.53878 2.58107 7.36753 2.58107 7.15346V6.46845H2.69844C3.50107 6.46845 4.15226 5.79901 4.15226 4.97388C4.15226 4.14875 3.50107 3.47931 2.69844 3.47931H1.71408C1.32791 3.47931 1.00988 3.15626 1.00988 2.75537C1.00988 2.35838 1.32412 2.03144 1.71408 2.03144H3.44807C3.6563 2.03144 3.82288 1.86019 3.82288 1.64612C3.82288 1.43206 3.6563 1.2608 3.44807 1.2608H2.58107V0.587468C2.58107 0.373401 2.41449 0.202148 2.20626 0.202148C1.99803 0.202148 1.83144 0.373401 1.83144 0.587468V1.2608H1.71408C0.911447 1.2608 0.260254 1.93025 0.260254 2.75537C0.260254 3.5805 0.911447 4.24995 1.71408 4.24995H2.69844C3.08461 4.24995 3.40264 4.57299 3.40264 4.97388C3.40264 5.37088 3.0884 5.69781 2.69844 5.69781H0.930377C0.722147 5.69781 0.555562 5.86907 0.555562 6.08313C0.555562 6.2972 0.722147 6.46845 0.930377 6.46845H1.83144V7.15346C1.83144 7.36364 1.99803 7.53878 2.20626 7.53878Z" fill="#48484C"/>
</svg>
