<svg width="14" height="14" viewBox="0 0 14 14" fill="none" xmlns="http://www.w3.org/2000/svg">
<path d="M14 14H7C3.14009 14 0 10.8599 0 7C0 3.14009 3.14009 0 7 0C10.8599 0 14 3.14009 14 7V14ZM7 0.982353C3.68186 0.982353 0.982353 3.68186 0.982353 7C0.982353 10.3181 3.68186 13.0176 7 13.0176H13.0176V7C13.0176 3.68186 10.3181 0.982353 7 0.982353Z" fill="white"/>
<path d="M10.4761 8.03299C11.0465 8.03299 11.509 7.57052 11.509 7.00005C11.509 6.42957 11.0465 5.9671 10.4761 5.9671C9.90558 5.9671 9.44312 6.42957 9.44312 7.00005C9.44312 7.57052 9.90558 8.03299 10.4761 8.03299Z" fill="white"/>
<path d="M6.99999 8.03348C7.5706 8.03348 8.03318 7.57091 8.03318 7.00029C8.03318 6.42968 7.5706 5.9671 6.99999 5.9671C6.42937 5.9671 5.9668 6.42968 5.9668 7.00029C5.9668 7.57091 6.42937 8.03348 6.99999 8.03348Z" fill="white"/>
<path d="M3.5237 8.03299C4.09418 8.03299 4.55664 7.57052 4.55664 7.00005C4.55664 6.42957 4.09418 5.9671 3.5237 5.9671C2.95322 5.9671 2.49075 6.42957 2.49075 7.00005C2.49075 7.57052 2.95322 8.03299 3.5237 8.03299Z" fill="white"/>
</svg>
