<svg width="46" height="46" viewBox="0 0 46 46" fill="none" xmlns="http://www.w3.org/2000/svg">
<path d="M42.7334 21.1356H38.1498H37.5366C36.1816 21.1356 35.0827 22.2345 35.0827 23.5941V23.8606C35.0827 25.2215 36.1816 26.3211 37.5386 26.3211H42.1268H42.7334C44.091 26.3211 45.1932 25.2169 45.1932 23.8606L45.1906 23.5908C45.1932 22.2345 44.091 21.1356 42.7334 21.1356Z" fill="#DADCDF"/>
<path d="M42.736 15.002H41.6534V3.10781C41.6534 1.39832 40.2551 0 38.545 0H18.037C16.3275 0 14.9292 1.39897 14.9292 3.10781V11.6415C10.7927 13.9799 6.52615 16.4227 6.51696 16.4286C4.20087 17.3818 0.807495 20.4574 0.807495 27.7201C0.807495 28.3687 0.850167 28.9675 0.909907 29.5458C0.928945 29.7152 0.949953 29.878 0.97293 30.0415C1.03267 30.4662 1.10751 30.8726 1.19679 31.2586C1.22896 31.3965 1.25391 31.5402 1.2887 31.6722C1.40884 32.1186 1.54801 32.5374 1.70426 32.9359C1.78303 33.1335 1.86838 33.3134 1.95438 33.4985C2.04628 33.6935 2.13885 33.8852 2.23798 34.0644C2.35286 34.2804 2.46775 34.4885 2.59379 34.6861C2.62399 34.7321 2.65682 34.7741 2.68767 34.8207C5.67862 39.3419 11.1964 39.3623 11.1964 39.3623H14.9292V42.8935C14.9292 44.601 16.3275 45.9993 18.037 45.9993H38.5443C40.2545 45.9993 41.6528 44.6004 41.6528 42.8935V38.5863H42.1267V38.5837H42.7314C44.091 38.5837 45.1932 37.4841 45.1906 36.1245L45.1932 35.8566C45.1906 34.499 44.091 33.4027 42.7333 33.4027H42.1267H38.1491H37.5359C36.1783 33.4027 35.082 34.5016 35.082 35.8586V36.131C35.082 37.4847 36.181 38.5883 37.5379 38.5883H39.4903V40.2518H17.091V17.9372C18.2162 17.2236 19.258 16.5369 19.8522 16.0767C22.8622 13.7488 25.7192 11.8949 26.1059 10.2136C26.6094 8.03211 24.9347 6.19395 22.0297 7.70321C21.1146 8.17851 19.2364 9.22035 17.091 10.425V4.92496L39.4903 4.92824V15.0007H38.1491V15.0033H37.5392C36.181 15.0033 35.0787 16.1023 35.0787 17.4632V17.7297C35.0787 19.09 36.181 20.1863 37.5359 20.1863H38.1458H42.1235H42.7347C44.091 20.1863 45.1906 19.0873 45.1906 17.7297V17.456C45.1932 16.1043 44.0942 15.002 42.736 15.002ZM28.288 41.3429C29.1493 41.3429 29.8439 42.0381 29.8439 42.8974C29.8439 43.7588 29.1487 44.4513 28.288 44.4513C27.43 44.4513 26.7367 43.7568 26.7367 42.8974C26.7381 42.0407 27.4333 41.3429 28.288 41.3429ZM31.5724 2.99226H25.0102C24.804 2.99226 24.6334 2.82486 24.6334 2.61807C24.6334 2.40799 24.804 2.24059 25.0102 2.24059H31.5724C31.7786 2.24059 31.9466 2.40734 31.9466 2.61807C31.9466 2.8242 31.7786 2.99226 31.5724 2.99226Z" fill="#DADCDF"/>
</svg>
