<svg width="14" height="7" viewBox="0 0 14 7" fill="none" xmlns="http://www.w3.org/2000/svg">
<path d="M13.91 2.65558C13.91 1.24857 12.7652 0.103699 11.3582 0.103699C10.3702 0.103699 9.47878 0.680803 9.0591 1.54933C8.43216 0.67814 7.41188 0.107311 6.26255 0.107311C4.70298 0.107311 3.35506 1.14737 2.94356 2.62262C2.71966 2.54873 2.48559 2.51163 2.24418 2.51163C1.00673 2.51163 0 3.51849 0 4.75581C0 5.99313 1.00673 6.99996 2.24418 6.99996H9.74134C10.7526 6.99996 11.5776 6.19643 11.6166 5.1944C12.9027 5.06443 13.91 3.97538 13.91 2.65558ZM9.74134 6.47259H2.24418C1.29757 6.47259 0.527373 5.70239 0.527373 4.75581C0.527373 3.8092 1.29757 3.039 2.24418 3.039C2.5148 3.039 2.77322 3.10005 3.0123 3.22029C3.08634 3.25762 3.17415 3.25789 3.24846 3.22055C3.32287 3.18348 3.3754 3.11344 3.39021 3.03154C3.6414 1.64281 4.84935 0.634684 6.26255 0.634684C7.86167 0.634684 9.17096 1.93561 9.18127 3.53471C9.18177 3.61273 9.21678 3.68638 9.27693 3.73608C9.33705 3.78579 9.41584 3.80585 9.49284 3.79222C9.57421 3.77727 9.65777 3.76954 9.74134 3.76954C10.4867 3.76954 11.093 4.37573 11.093 5.12094C11.093 5.86617 10.4867 6.47259 9.74134 6.47259ZM11.5632 4.66969C11.3603 3.85137 10.6216 3.24217 9.74134 3.24217C9.72575 3.24217 9.7103 3.24244 9.69472 3.2427C9.65925 2.84941 9.55399 2.47653 9.39667 2.132C9.4006 2.12253 9.4068 2.11462 9.40967 2.10452C9.65482 1.23697 10.4562 0.631071 11.3582 0.631071C12.4745 0.631071 13.3826 1.53929 13.3826 2.65558C13.3826 3.70267 12.5836 4.56659 11.5632 4.66969Z" fill="#48484C"/>
</svg>
