  <svg style="display: none">
    <symbol id="avto">
      <path d="M8.0276 6.31519C7.64998 6.31519 7.34277 6.62239 7.34277 7.00001C7.34277 7.37763 7.64998 7.68483 8.0276 7.68483C8.40522 7.68483 8.71242 7.37763 8.71242 7.00001C8.71242 6.62239 8.40522 6.31519 8.0276 6.31519Z"></path>
      <path d="M8.48145 4.23926V5.47419C8.83314 5.57891 9.1342 5.80201 9.33821 6.0973L10.5128 5.71563C10.1133 4.94585 9.36659 4.38415 8.48145 4.23926Z"></path>
      <path d="M10.7936 6.57812L9.61865 6.9599C9.61898 6.97324 9.61969 6.9865 9.61969 6.9999C9.61969 7.36349 9.49691 7.69876 9.29102 7.96708L10.0164 8.96551C10.5163 8.45987 10.8254 7.76534 10.8254 6.9999C10.8254 6.85657 10.8145 6.71572 10.7936 6.57812Z"></path>
      <path d="M8.02814 1.02808H2.50986C2.25936 1.02808 2.05628 1.23116 2.05628 1.48166C2.05628 1.73215 2.25936 1.93523 2.50986 1.93523H4.86761C4.37017 2.24676 3.92165 2.62936 3.53651 3.06891H0.453579C0.203082 3.06894 0 3.27205 0 3.52254C0 3.77304 0.203082 3.97612 0.453579 3.97612H2.88034C2.35704 4.86359 2.05625 5.89724 2.05625 6.99993C2.05625 8.28301 2.4631 9.47285 3.15441 10.4474H1.86744C1.61695 10.4474 1.41387 10.6504 1.41387 10.9009C1.41387 11.1514 1.61695 11.3545 1.86744 11.3545H3.94609C4.22891 11.6198 4.53749 11.8579 4.86761 12.0646H0.500364C0.249868 12.0646 0.0467852 12.2677 0.0467852 12.5182C0.0467852 12.7687 0.249868 12.9718 0.500364 12.9718H8.02814C11.3211 12.9718 14 10.2928 14 6.99991C14 3.70703 11.321 1.02808 8.02814 1.02808ZM10.2315 9.97658C10.2231 9.98363 10.2148 9.99074 10.2058 9.99722C10.1957 10.0046 10.1853 10.0114 10.1749 10.0178C9.56883 10.4502 8.82767 10.7048 8.02814 10.7048C7.22861 10.7048 6.48748 10.4502 5.88141 10.0178C5.87091 10.0114 5.86057 10.0046 5.85045 9.99722C5.84148 9.99069 5.8332 9.98358 5.82483 9.97658C4.91442 9.30091 4.32325 8.21821 4.32325 6.99993C4.32325 4.95705 5.98526 3.29504 8.02814 3.29504C10.071 3.29504 11.733 4.95705 11.733 6.99993C11.733 8.21824 11.1419 9.30091 10.2315 9.97658Z"></path>
      <path d="M5.54297 5.71563L6.71752 6.0973C6.92159 5.80204 7.22262 5.57894 7.57432 5.47419V4.23926C6.6892 4.38418 5.94246 4.94585 5.54297 5.71563Z"></path>
      <path d="M8.55785 8.50098C8.39198 8.55971 8.21373 8.592 8.02795 8.592C7.84223 8.592 7.66392 8.55971 7.49806 8.50098L6.77246 9.49963C7.15024 9.69013 7.57675 9.79765 8.02795 9.79765C8.47915 9.79765 8.90566 9.69016 9.28344 9.49963L8.55785 8.50098Z"></path>
      <path d="M6.43619 6.9999C6.43619 6.9865 6.43685 6.97324 6.43718 6.9599L5.26224 6.57812C5.24135 6.71572 5.23047 6.85657 5.23047 6.9999C5.23047 7.76536 5.53959 8.4599 6.03941 8.96556L6.76484 7.96708C6.55897 7.69878 6.43619 7.36349 6.43619 6.9999Z"></path>
    </symbol>
    <symbol id="house">
      <path d="M1.90339 12.889C1.90339 12.889 1.89096 13.202 2.19665 13.202C2.57697 13.202 5.72567 13.1978 5.72567 13.1978L5.73085 10.3061C5.73085 10.3061 5.68111 9.82944 6.14381 9.82944H7.60805C8.1552 9.82944 8.12153 10.3061 8.12153 10.3061L8.11531 13.1885C8.11531 13.1885 11.1008 13.1885 11.5697 13.1885C11.9578 13.1885 11.9402 12.7989 11.9402 12.7989V7.46778L7.07178 3.13721L1.90339 7.46778V12.889Z"></path>
      <path d="M0 7.06469C0 7.06469 0.43886 7.8735 1.39585 7.06469L7.11503 2.22635L12.4772 7.03464C13.585 7.8336 14 7.03464 14 7.03464L7.11503 0.797852L0 7.06469Z"></path>
      <path d="M12.347 2.21484H10.9678L10.9735 3.88738L12.347 5.05267V2.21484Z"></path>
    </symbol>
    <symbol id="movie">
      <path d="M2.78673 5.49618C2.76311 5.29765 2.69269 5.11332 2.58651 4.95471L12.0979 1.779L11.5986 0.28355C11.5261 0.066232 11.291 -0.0510485 11.0738 0.0214377L0.727503 3.47589C0.510326 3.54838 0.392811 3.78341 0.465391 4.00073L0.710213 4.73388C0.465813 4.96081 0.3125 5.28453 0.3125 5.64359C0.3125 6.10859 0.569552 6.51446 0.948898 6.72723V12.5852C0.948898 12.8143 1.13478 13 1.36376 13H12.2715C12.5004 13 12.6863 12.8143 12.6863 12.5852V5.49618H2.78673ZM8.849 1.2522L10.1083 0.831765L9.80524 2.05658L8.54598 2.47702L8.849 1.2522ZM5.73781 2.29095L6.99716 1.87051L6.69414 3.09528L5.43489 3.51577L5.73781 2.29095ZM1.55409 6.27619C1.20539 6.27619 0.921628 5.99243 0.921628 5.64364C0.921628 5.29484 1.20539 5.01108 1.55409 5.01108C1.90289 5.01108 2.18664 5.29484 2.18664 5.64364C2.18664 5.99243 1.90289 6.27619 1.55409 6.27619ZM2.62676 3.3297L3.88611 2.90926L3.58309 4.13408L2.32375 4.55456L2.62676 3.3297ZM3.86385 6.89685H2.53624L3.21153 5.83106H4.53914L3.86385 6.89685ZM6.49144 5.83106H7.81906L7.14377 6.89685H5.81615L6.49144 5.83106ZM6.16556 10.9817V8.17039L8.40448 9.57607L6.16556 10.9817ZM10.4237 6.89685H9.09607L9.77136 5.83106H11.099L10.4237 6.89685Z"></path>
    </symbol>
    <symbol id="work">
      <path d="M5.35742 6.88086H7.64258V7.64258H5.35742V6.88086Z"></path>
      <path d="M10.5467 7.64266H8.4043V8.02352C8.4043 8.23398 8.2339 8.40438 8.02344 8.40438H4.97656C4.7661 8.40438 4.5957 8.23398 4.5957 8.02352V7.64266H2.45327C1.96083 7.64266 1.52532 7.32875 1.36941 6.8616L0 2.75269V11.0704C0 11.7004 0.512573 12.213 1.14258 12.213H11.8574C12.4874 12.213 13 11.7004 13 11.0704V2.75298L11.6305 6.8616C11.4747 7.32875 11.0392 7.64266 10.5467 7.64266Z"></path>
      <path d="M8.02341 0.787109H4.97654C4.34653 0.787109 3.83396 1.29968 3.83396 1.92969V2.31055H0.655273L2.09173 6.62051C2.1438 6.77632 2.2892 6.88086 2.45325 6.88086H4.59568V6.5C4.59568 6.28954 4.76607 6.11914 4.97654 6.11914H8.02341C8.23388 6.11914 8.40427 6.28954 8.40427 6.5V6.88086H10.5467C10.7107 6.88086 10.8561 6.77632 10.9082 6.62051L12.3448 2.31055H9.16599V1.92969C9.16599 1.29968 8.65342 0.787109 8.02341 0.787109ZM4.59568 2.31055V1.92969C4.59568 1.71952 4.76637 1.54883 4.97654 1.54883H8.02341C8.23358 1.54883 8.40427 1.71952 8.40427 1.92969V2.31055H4.59568Z"></path>
    </symbol>
    <symbol id="arrow">
      <path d="M3.15346 4.18565L0.143669 1.25936C-0.0478897 1.07322 -0.0478897 0.771411 0.143669 0.585355C0.335056 0.399283 0.645469 0.399283 0.836841 0.585355L3.50005 3.17467L6.16317 0.58543C6.35463 0.399358 6.66501 0.399358 6.8564 0.58543C7.04787 0.771502 7.04787 1.07329 6.8564 1.25944L3.84656 4.18573C3.75082 4.27877 3.62547 4.32523 3.50007 4.32523C3.3746 4.32523 3.24916 4.27867 3.15346 4.18565Z"></path>
    </symbol>
  </svg>
